<svg width="594" height="642" viewBox="0 0 594 642" fill="none" xmlns="http://www.w3.org/2000/svg">
<path d="M308.744 30.5939C302.262 37.599 291.78 37.599 285.299 30.5939C278.817 23.5889 278.817 12.2589 285.299 5.25381C291.78 -1.75127 302.262 -1.75127 308.744 5.25381C315.225 12.2589 315.225 23.5889 308.744 30.5939ZM378.853 81.0305C372.372 74.0254 361.889 74.0254 355.408 81.0305C348.927 88.0355 348.927 99.3655 355.408 106.371C361.889 113.376 372.372 113.376 378.853 106.371C385.334 99.3655 385.334 88.0355 378.853 81.0305ZM448.963 156.807C442.481 149.802 431.999 149.802 425.518 156.807C419.036 163.812 419.036 175.142 425.518 182.147C431.999 189.152 442.481 189.152 448.963 182.147C455.444 175.142 455.444 163.812 448.963 156.807ZM519.072 232.584C512.591 225.579 502.108 225.579 495.627 232.584C489.146 239.589 489.146 250.919 495.627 257.924C502.108 264.929 512.591 264.929 519.072 257.924C525.553 250.919 525.553 239.589 519.072 232.584ZM589.181 308.36C582.7 301.355 572.218 301.355 565.736 308.36C559.255 315.365 559.255 326.695 565.736 333.701C572.218 340.706 582.7 340.706 589.181 333.701C595.606 326.695 595.606 315.365 589.181 308.36ZM238.634 81.0305C232.153 74.0254 221.67 74.0254 215.189 81.0305C208.708 88.0355 208.708 99.3655 215.189 106.371C221.67 113.376 232.153 113.376 238.634 106.371C245.115 99.3655 245.115 88.0355 238.634 81.0305ZM308.744 156.807C302.262 149.802 291.78 149.802 285.299 156.807C278.817 163.812 278.817 175.142 285.299 182.147C291.78 189.152 302.262 189.152 308.744 182.147C315.225 175.142 315.225 163.812 308.744 156.807ZM378.853 232.584C372.372 225.579 361.889 225.579 355.408 232.584C348.927 239.589 348.927 250.919 355.408 257.924C361.889 264.929 372.372 264.929 378.853 257.924C385.334 250.919 385.334 239.589 378.853 232.584ZM448.963 308.36C442.481 301.355 431.999 301.355 425.518 308.36C419.036 315.365 419.036 326.695 425.518 333.701C431.999 340.706 442.481 340.706 448.963 333.701C455.444 326.695 455.444 315.365 448.963 308.36ZM519.072 384.137C512.591 377.132 502.108 377.132 495.627 384.137C489.146 391.142 489.146 402.472 495.627 409.477C502.108 416.482 512.591 416.482 519.072 409.477C525.553 402.472 525.553 391.142 519.072 384.137ZM168.525 156.807C162.044 149.802 151.561 149.802 145.08 156.807C138.599 163.812 138.599 175.142 145.08 182.147C151.561 189.152 162.044 189.152 168.525 182.147C175.006 175.142 175.006 163.812 168.525 156.807ZM238.634 232.584C232.153 225.579 221.67 225.579 215.189 232.584C208.708 239.589 208.708 250.919 215.189 257.924C221.67 264.929 232.153 264.929 238.634 257.924C245.115 250.919 245.115 239.589 238.634 232.584ZM308.744 308.36C302.262 301.355 291.78 301.355 285.299 308.36C278.817 315.365 278.817 326.695 285.299 333.701C291.78 340.706 302.262 340.706 308.744 333.701C315.225 326.695 315.225 315.365 308.744 308.36ZM378.853 384.137C372.372 377.132 361.889 377.132 355.408 384.137C348.927 391.142 348.927 402.472 355.408 409.477C361.889 416.482 372.372 416.482 378.853 409.477C385.334 402.472 385.334 391.142 378.853 384.137ZM448.963 459.914C442.481 452.909 431.999 452.909 425.518 459.914C419.036 466.919 419.036 478.249 425.518 485.254C431.999 492.259 442.481 492.259 448.963 485.254C455.444 478.249 455.444 466.858 448.963 459.914ZM98.4153 232.584C91.9341 225.579 81.4515 225.579 74.9703 232.584C68.4892 239.589 68.4892 250.919 74.9703 257.924C81.4515 264.929 91.9341 264.929 98.4153 257.924C104.896 250.919 104.896 239.589 98.4153 232.584ZM168.525 308.36C162.044 301.355 151.561 301.355 145.08 308.36C138.599 315.365 138.599 326.695 145.08 333.701C151.561 340.706 162.044 340.706 168.525 333.701C175.006 326.695 175.006 315.365 168.525 308.36ZM238.634 384.137C232.153 377.132 221.67 377.132 215.189 384.137C208.708 391.142 208.708 402.472 215.189 409.477C221.67 416.482 232.153 416.482 238.634 409.477C245.115 402.472 245.115 391.142 238.634 384.137ZM308.744 459.914C302.262 452.909 291.78 452.909 285.299 459.914C278.817 466.919 278.817 478.249 285.299 485.254C291.78 492.259 302.262 492.259 308.744 485.254C315.225 478.249 315.225 466.858 308.744 459.914ZM378.853 535.69C372.372 528.685 361.889 528.685 355.408 535.69C348.927 542.695 348.927 554.025 355.408 561.03C361.889 568.035 372.372 568.035 378.853 561.03C385.334 554.025 385.334 542.635 378.853 535.69ZM28.3058 308.36C21.8246 301.355 11.3421 301.355 4.86088 308.36C-1.62029 315.365 -1.62029 326.695 4.86088 333.701C11.3421 340.706 21.8246 340.706 28.3058 333.701C34.787 326.695 34.787 315.365 28.3058 308.36ZM98.4153 384.137C91.9341 377.132 81.4515 377.132 74.9703 384.137C68.4892 391.142 68.4892 402.472 74.9703 409.477C81.4515 416.482 91.9341 416.482 98.4153 409.477C104.896 402.472 104.896 391.142 98.4153 384.137ZM168.525 459.914C162.044 452.909 151.561 452.909 145.08 459.914C138.599 466.919 138.599 478.249 145.08 485.254C151.561 492.259 162.044 492.259 168.525 485.254C175.006 478.249 175.006 466.858 168.525 459.914ZM238.634 535.69C232.153 528.685 221.67 528.685 215.189 535.69C208.708 542.695 208.708 554.025 215.189 561.03C221.67 568.035 232.153 568.035 238.634 561.03C245.115 554.025 245.115 542.635 238.634 535.69ZM308.744 611.406C302.262 604.401 291.78 604.401 285.299 611.406C278.817 618.411 278.817 629.741 285.299 636.746C291.78 643.751 302.262 643.751 308.744 636.746C315.225 629.802 315.225 618.411 308.744 611.406Z" fill="#ACD0CA" fill-opacity="0.4"/>
</svg>
