<svg width="597" height="642" viewBox="0 0 597 642" fill="none" xmlns="http://www.w3.org/2000/svg">
<path d="M311.744 30.5939C305.262 37.599 294.78 37.599 288.299 30.5939C281.818 23.5889 281.818 12.2589 288.299 5.25381C294.78 -1.75127 305.262 -1.75127 311.744 5.25381C318.225 12.2589 318.225 23.5889 311.744 30.5939ZM381.853 81.0305C375.372 74.0254 364.889 74.0254 358.408 81.0305C351.927 88.0355 351.927 99.3655 358.408 106.371C364.889 113.376 375.372 113.376 381.853 106.371C388.334 99.3655 388.334 88.0355 381.853 81.0305ZM451.962 156.807C445.481 149.802 434.999 149.802 428.518 156.807C422.036 163.812 422.036 175.142 428.518 182.147C434.999 189.152 445.481 189.152 451.962 182.147C458.444 175.142 458.444 163.812 451.962 156.807ZM522.072 232.584C515.591 225.579 505.108 225.579 498.627 232.584C492.146 239.589 492.146 250.919 498.627 257.924C505.108 264.929 515.591 264.929 522.072 257.924C528.553 250.919 528.553 239.589 522.072 232.584ZM592.181 308.36C585.7 301.355 575.218 301.355 568.736 308.36C562.255 315.365 562.255 326.695 568.736 333.701C575.218 340.706 585.7 340.706 592.181 333.701C598.606 326.695 598.606 315.365 592.181 308.36ZM241.634 81.0305C235.153 74.0254 224.67 74.0254 218.189 81.0305C211.708 88.0355 211.708 99.3655 218.189 106.371C224.67 113.376 235.153 113.376 241.634 106.371C248.115 99.3655 248.115 88.0355 241.634 81.0305ZM311.744 156.807C305.262 149.802 294.78 149.802 288.299 156.807C281.818 163.812 281.818 175.142 288.299 182.147C294.78 189.152 305.262 189.152 311.744 182.147C318.225 175.142 318.225 163.812 311.744 156.807ZM381.853 232.584C375.372 225.579 364.889 225.579 358.408 232.584C351.927 239.589 351.927 250.919 358.408 257.924C364.889 264.929 375.372 264.929 381.853 257.924C388.334 250.919 388.334 239.589 381.853 232.584ZM451.962 308.36C445.481 301.355 434.999 301.355 428.518 308.36C422.036 315.365 422.036 326.695 428.518 333.701C434.999 340.706 445.481 340.706 451.962 333.701C458.444 326.695 458.444 315.365 451.962 308.36ZM522.072 384.137C515.591 377.132 505.108 377.132 498.627 384.137C492.146 391.142 492.146 402.472 498.627 409.477C505.108 416.482 515.591 416.482 522.072 409.477C528.553 402.472 528.553 391.142 522.072 384.137ZM171.525 156.807C165.044 149.802 154.561 149.802 148.08 156.807C141.599 163.812 141.599 175.142 148.08 182.147C154.561 189.152 165.044 189.152 171.525 182.147C178.006 175.142 178.006 163.812 171.525 156.807ZM241.634 232.584C235.153 225.579 224.67 225.579 218.189 232.584C211.708 239.589 211.708 250.919 218.189 257.924C224.67 264.929 235.153 264.929 241.634 257.924C248.115 250.919 248.115 239.589 241.634 232.584ZM311.744 308.36C305.262 301.355 294.78 301.355 288.299 308.36C281.818 315.365 281.818 326.695 288.299 333.701C294.78 340.706 305.262 340.706 311.744 333.701C318.225 326.695 318.225 315.365 311.744 308.36ZM381.853 384.137C375.372 377.132 364.889 377.132 358.408 384.137C351.927 391.142 351.927 402.472 358.408 409.477C364.889 416.482 375.372 416.482 381.853 409.477C388.334 402.472 388.334 391.142 381.853 384.137ZM451.962 459.914C445.481 452.909 434.999 452.909 428.518 459.914C422.036 466.919 422.036 478.249 428.518 485.254C434.999 492.259 445.481 492.259 451.962 485.254C458.444 478.249 458.444 466.858 451.962 459.914ZM101.415 232.584C94.9341 225.579 84.4515 225.579 77.9703 232.584C71.4892 239.589 71.4892 250.919 77.9703 257.924C84.4515 264.929 94.9341 264.929 101.415 257.924C107.896 250.919 107.896 239.589 101.415 232.584ZM171.525 308.36C165.044 301.355 154.561 301.355 148.08 308.36C141.599 315.365 141.599 326.695 148.08 333.701C154.561 340.706 165.044 340.706 171.525 333.701C178.006 326.695 178.006 315.365 171.525 308.36ZM241.634 384.137C235.153 377.132 224.67 377.132 218.189 384.137C211.708 391.142 211.708 402.472 218.189 409.477C224.67 416.482 235.153 416.482 241.634 409.477C248.115 402.472 248.115 391.142 241.634 384.137ZM311.744 459.914C305.262 452.909 294.78 452.909 288.299 459.914C281.818 466.919 281.818 478.249 288.299 485.254C294.78 492.259 305.262 492.259 311.744 485.254C318.225 478.249 318.225 466.858 311.744 459.914ZM381.853 535.69C375.372 528.685 364.889 528.685 358.408 535.69C351.927 542.695 351.927 554.025 358.408 561.03C364.889 568.036 375.372 568.036 381.853 561.03C388.334 554.025 388.334 542.635 381.853 535.69ZM31.3058 308.36C24.8246 301.355 14.3421 301.355 7.86088 308.36C1.37971 315.365 1.37971 326.695 7.86088 333.701C14.3421 340.706 24.8246 340.706 31.3058 333.701C37.787 326.695 37.787 315.365 31.3058 308.36ZM101.415 384.137C94.9341 377.132 84.4515 377.132 77.9703 384.137C71.4892 391.142 71.4892 402.472 77.9703 409.477C84.4515 416.482 94.9341 416.482 101.415 409.477C107.896 402.472 107.896 391.142 101.415 384.137ZM171.525 459.914C165.044 452.909 154.561 452.909 148.08 459.914C141.599 466.919 141.599 478.249 148.08 485.254C154.561 492.259 165.044 492.259 171.525 485.254C178.006 478.249 178.006 466.858 171.525 459.914ZM241.634 535.69C235.153 528.685 224.67 528.685 218.189 535.69C211.708 542.695 211.708 554.025 218.189 561.03C224.67 568.036 235.153 568.036 241.634 561.03C248.115 554.025 248.115 542.635 241.634 535.69ZM311.744 611.406C305.262 604.401 294.78 604.401 288.299 611.406C281.818 618.411 281.818 629.741 288.299 636.746C294.78 643.751 305.262 643.751 311.744 636.746C318.225 629.802 318.225 618.411 311.744 611.406Z" fill="#ACD0CA" fill-opacity="0.4"/>
<g filter="url(#filter0_d_53_4)">
<rect x="4" y="151" width="447" height="100" rx="50" fill="#EEEEEE"/>
</g>
<path d="M57.9129 213.799L48.4988 204.094C49.9597 202.147 50.7499 199.767 50.7499 197.263C50.7499 194.266 49.6153 191.455 47.5635 189.336C45.5118 187.217 42.7786 186.052 39.875 186.052C36.9713 186.052 34.2381 187.221 32.1864 189.336C30.131 191.452 29 194.266 29 197.263C29 200.256 30.1346 203.074 32.1864 205.189C34.2381 207.308 36.9677 208.474 39.875 208.474C42.3037 208.474 44.6092 207.659 46.4978 206.157L55.9119 215.859C55.9395 215.887 55.9723 215.91 56.0083 215.925C56.0444 215.94 56.0831 215.948 56.1221 215.948C56.1612 215.948 56.1999 215.94 56.2359 215.925C56.272 215.91 56.3048 215.887 56.3324 215.859L57.9129 214.233C57.9405 214.205 57.9624 214.171 57.9774 214.134C57.9923 214.096 58 214.056 58 214.016C58 213.976 57.9923 213.936 57.9774 213.899C57.9624 213.862 57.9405 213.828 57.9129 213.799ZM45.6169 203.182C44.0799 204.763 42.0427 205.634 39.875 205.634C37.7072 205.634 35.67 204.763 34.133 203.182C32.5996 201.598 31.755 199.498 31.755 197.263C31.755 195.028 32.5996 192.924 34.133 191.343C35.67 189.762 37.7072 188.892 39.875 188.892C42.0427 188.892 44.0836 189.759 45.6169 191.343C47.1503 192.928 47.9949 195.028 47.9949 197.263C47.9949 199.498 47.1503 201.602 45.6169 203.182Z" fill="black"/>
<path d="M106.238 211.144H102.465L100.965 207.242H94.0977L92.6797 211.144H89L95.6914 193.965H99.3594L106.238 211.144ZM99.8516 204.347L97.4844 197.972L95.1641 204.347H99.8516ZM110.598 211.144L105.582 198.699H109.039L111.383 205.051L112.062 207.172C112.242 206.633 112.355 206.277 112.402 206.105C112.512 205.754 112.629 205.402 112.754 205.051L115.121 198.699H118.508L113.562 211.144H110.598ZM119.773 204.746C119.773 203.652 120.043 202.594 120.582 201.57C121.121 200.547 121.883 199.765 122.867 199.226C123.859 198.687 124.965 198.418 126.184 198.418C128.066 198.418 129.609 199.031 130.812 200.258C132.016 201.476 132.617 203.019 132.617 204.886C132.617 206.769 132.008 208.332 130.789 209.574C129.578 210.808 128.051 211.426 126.207 211.426C125.066 211.426 123.977 211.168 122.938 210.652C121.906 210.136 121.121 209.383 120.582 208.39C120.043 207.39 119.773 206.176 119.773 204.746ZM123.148 204.922C123.148 206.156 123.441 207.101 124.027 207.758C124.613 208.414 125.336 208.742 126.195 208.742C127.055 208.742 127.773 208.414 128.352 207.758C128.938 207.101 129.23 206.148 129.23 204.898C129.23 203.679 128.938 202.742 128.352 202.086C127.773 201.429 127.055 201.101 126.195 201.101C125.336 201.101 124.613 201.429 124.027 202.086C123.441 202.742 123.148 203.687 123.148 204.922ZM146.059 202.379L142.812 202.965C142.703 202.316 142.453 201.828 142.062 201.5C141.68 201.172 141.18 201.008 140.562 201.008C139.742 201.008 139.086 201.293 138.594 201.863C138.109 202.426 137.867 203.371 137.867 204.699C137.867 206.176 138.113 207.219 138.605 207.828C139.105 208.437 139.773 208.742 140.609 208.742C141.234 208.742 141.746 208.566 142.145 208.215C142.543 207.855 142.824 207.242 142.988 206.375L146.223 206.926C145.887 208.41 145.242 209.531 144.289 210.289C143.336 211.047 142.059 211.426 140.457 211.426C138.637 211.426 137.184 210.851 136.098 209.703C135.02 208.554 134.48 206.965 134.48 204.933C134.48 202.879 135.023 201.281 136.109 200.14C137.195 198.992 138.664 198.418 140.516 198.418C142.031 198.418 143.234 198.746 144.125 199.402C145.023 200.051 145.668 201.043 146.059 202.379ZM151.027 202.496L148.039 201.957C148.375 200.754 148.953 199.863 149.773 199.285C150.594 198.707 151.812 198.418 153.43 198.418C154.898 198.418 155.992 198.594 156.711 198.945C157.43 199.289 157.934 199.73 158.223 200.269C158.52 200.801 158.668 201.781 158.668 203.211L158.633 207.054C158.633 208.148 158.684 208.957 158.785 209.48C158.895 209.996 159.094 210.551 159.383 211.144H156.125C156.039 210.926 155.934 210.601 155.809 210.172C155.754 209.976 155.715 209.847 155.691 209.785C155.129 210.332 154.527 210.742 153.887 211.015C153.246 211.289 152.562 211.426 151.836 211.426C150.555 211.426 149.543 211.078 148.801 210.383C148.066 209.687 147.699 208.808 147.699 207.746C147.699 207.043 147.867 206.418 148.203 205.871C148.539 205.316 149.008 204.894 149.609 204.605C150.219 204.308 151.094 204.051 152.234 203.832C153.773 203.543 154.84 203.273 155.434 203.023V202.695C155.434 202.062 155.277 201.613 154.965 201.347C154.652 201.074 154.062 200.937 153.195 200.937C152.609 200.937 152.152 201.054 151.824 201.289C151.496 201.515 151.23 201.918 151.027 202.496ZM155.434 205.168C155.012 205.308 154.344 205.476 153.43 205.672C152.516 205.867 151.918 206.058 151.637 206.246C151.207 206.551 150.992 206.937 150.992 207.406C150.992 207.867 151.164 208.265 151.508 208.601C151.852 208.937 152.289 209.105 152.82 209.105C153.414 209.105 153.98 208.91 154.52 208.519C154.918 208.222 155.18 207.859 155.305 207.429C155.391 207.148 155.434 206.613 155.434 205.824V205.168ZM173.34 211.144H170.281V209.316C169.773 210.027 169.172 210.558 168.477 210.91C167.789 211.254 167.094 211.426 166.391 211.426C164.961 211.426 163.734 210.851 162.711 209.703C161.695 208.547 161.188 206.937 161.188 204.875C161.188 202.765 161.684 201.164 162.676 200.07C163.668 198.969 164.922 198.418 166.438 198.418C167.828 198.418 169.031 198.996 170.047 200.152V193.965H173.34V211.144ZM164.551 204.652C164.551 205.98 164.734 206.941 165.102 207.535C165.633 208.394 166.375 208.824 167.328 208.824C168.086 208.824 168.73 208.504 169.262 207.863C169.793 207.215 170.059 206.25 170.059 204.969C170.059 203.539 169.801 202.511 169.285 201.886C168.77 201.254 168.109 200.937 167.305 200.937C166.523 200.937 165.867 201.25 165.336 201.875C164.812 202.492 164.551 203.418 164.551 204.652ZM175.836 204.746C175.836 203.652 176.105 202.594 176.645 201.57C177.184 200.547 177.945 199.765 178.93 199.226C179.922 198.687 181.027 198.418 182.246 198.418C184.129 198.418 185.672 199.031 186.875 200.258C188.078 201.476 188.68 203.019 188.68 204.886C188.68 206.769 188.07 208.332 186.852 209.574C185.641 210.808 184.113 211.426 182.27 211.426C181.129 211.426 180.039 211.168 179 210.652C177.969 210.136 177.184 209.383 176.645 208.39C176.105 207.39 175.836 206.176 175.836 204.746ZM179.211 204.922C179.211 206.156 179.504 207.101 180.09 207.758C180.676 208.414 181.398 208.742 182.258 208.742C183.117 208.742 183.836 208.414 184.414 207.758C185 207.101 185.293 206.148 185.293 204.898C185.293 203.679 185 202.742 184.414 202.086C183.836 201.429 183.117 201.101 182.258 201.101C181.398 201.101 180.676 201.429 180.09 202.086C179.504 202.742 179.211 203.687 179.211 204.922ZM190.109 207.594L193.414 207.09C193.555 207.73 193.84 208.219 194.27 208.554C194.699 208.883 195.301 209.047 196.074 209.047C196.926 209.047 197.566 208.89 197.996 208.578C198.285 208.359 198.43 208.066 198.43 207.699C198.43 207.449 198.352 207.242 198.195 207.078C198.031 206.922 197.664 206.777 197.094 206.644C194.438 206.058 192.754 205.523 192.043 205.039C191.059 204.367 190.566 203.433 190.566 202.238C190.566 201.16 190.992 200.254 191.844 199.519C192.695 198.785 194.016 198.418 195.805 198.418C197.508 198.418 198.773 198.695 199.602 199.25C200.43 199.804 201 200.625 201.312 201.711L198.207 202.285C198.074 201.801 197.82 201.429 197.445 201.172C197.078 200.914 196.551 200.785 195.863 200.785C194.996 200.785 194.375 200.906 194 201.148C193.75 201.32 193.625 201.543 193.625 201.816C193.625 202.051 193.734 202.25 193.953 202.414C194.25 202.633 195.273 202.941 197.023 203.34C198.781 203.738 200.008 204.226 200.703 204.804C201.391 205.39 201.734 206.207 201.734 207.254C201.734 208.394 201.258 209.375 200.305 210.195C199.352 211.015 197.941 211.426 196.074 211.426C194.379 211.426 193.035 211.082 192.043 210.394C191.059 209.707 190.414 208.773 190.109 207.594Z" fill="black"/>
<g filter="url(#filter1_d_53_4)">
<circle cx="459" cy="126" r="122" fill="#EEEEEE"/>
<path d="M423.179 123.413L432.476 122.388C432.703 124.279 433.296 125.68 434.253 126.592C435.21 127.503 436.475 127.959 438.047 127.959C440.029 127.959 441.715 127.048 443.105 125.225C444.495 123.402 445.384 119.619 445.771 113.877C443.356 116.68 440.337 118.081 436.714 118.081C432.772 118.081 429.365 116.566 426.494 113.535C423.646 110.482 422.222 106.517 422.222 101.641C422.222 96.5592 423.726 92.4691 426.733 89.3701C429.764 86.2484 433.615 84.6875 438.286 84.6875C443.368 84.6875 447.537 86.6585 450.796 90.6006C454.054 94.5199 455.684 100.98 455.684 109.98C455.684 119.141 453.986 125.749 450.591 129.805C447.196 133.861 442.775 135.889 437.329 135.889C433.41 135.889 430.243 134.852 427.827 132.778C425.412 130.682 423.862 127.56 423.179 123.413ZM444.917 102.427C444.917 99.3278 444.199 96.9238 442.764 95.2148C441.351 93.5059 439.71 92.6514 437.842 92.6514C436.064 92.6514 434.583 93.3577 433.398 94.7705C432.236 96.1605 431.655 98.4505 431.655 101.641C431.655 104.876 432.293 107.257 433.569 108.784C434.845 110.288 436.44 111.04 438.354 111.04C440.2 111.04 441.75 110.311 443.003 108.853C444.279 107.394 444.917 105.252 444.917 102.427ZM478.174 84.6875C483.027 84.6875 486.821 86.4193 489.556 89.8828C492.814 93.9844 494.443 100.786 494.443 110.288C494.443 119.767 492.803 126.58 489.521 130.728C486.81 134.146 483.027 135.854 478.174 135.854C473.298 135.854 469.367 133.986 466.382 130.249C463.397 126.489 461.904 119.801 461.904 110.186C461.904 100.752 463.545 93.9616 466.826 89.8145C469.538 86.3965 473.32 84.6875 478.174 84.6875ZM478.174 92.6514C477.012 92.6514 475.975 93.0273 475.063 93.7793C474.152 94.5085 473.446 95.8301 472.944 97.7441C472.284 100.228 471.953 104.409 471.953 110.288C471.953 116.167 472.249 120.212 472.842 122.422C473.434 124.609 474.175 126.068 475.063 126.797C475.975 127.526 477.012 127.891 478.174 127.891C479.336 127.891 480.373 127.526 481.284 126.797C482.196 126.045 482.902 124.712 483.403 122.798C484.064 120.337 484.395 116.167 484.395 110.288C484.395 104.409 484.098 100.376 483.506 98.1885C482.913 95.9782 482.161 94.5085 481.25 93.7793C480.361 93.0273 479.336 92.6514 478.174 92.6514Z" fill="black"/>
<path d="M451.861 154.852L446.992 155.73C446.828 154.758 446.453 154.025 445.867 153.533C445.293 153.041 444.543 152.795 443.617 152.795C442.387 152.795 441.402 153.223 440.664 154.078C439.938 154.922 439.574 156.34 439.574 158.332C439.574 160.547 439.943 162.111 440.682 163.025C441.432 163.939 442.434 164.396 443.688 164.396C444.625 164.396 445.393 164.133 445.99 163.605C446.588 163.066 447.01 162.146 447.256 160.846L452.107 161.672C451.604 163.898 450.637 165.58 449.207 166.717C447.777 167.854 445.861 168.422 443.459 168.422C440.729 168.422 438.549 167.561 436.92 165.838C435.303 164.115 434.494 161.73 434.494 158.684C434.494 155.602 435.309 153.205 436.938 151.494C438.566 149.771 440.77 148.91 443.547 148.91C445.82 148.91 447.625 149.402 448.961 150.387C450.309 151.359 451.275 152.848 451.861 154.852ZM459.314 155.027L454.832 154.219C455.336 152.414 456.203 151.078 457.434 150.211C458.664 149.344 460.492 148.91 462.918 148.91C465.121 148.91 466.762 149.174 467.84 149.701C468.918 150.217 469.674 150.879 470.107 151.688C470.553 152.484 470.775 153.955 470.775 156.1L470.723 161.865C470.723 163.506 470.799 164.719 470.951 165.504C471.115 166.277 471.414 167.109 471.848 168H466.961C466.832 167.672 466.674 167.186 466.486 166.541C466.404 166.248 466.346 166.055 466.311 165.961C465.467 166.781 464.564 167.396 463.604 167.807C462.643 168.217 461.617 168.422 460.527 168.422C458.605 168.422 457.088 167.9 455.975 166.857C454.873 165.814 454.322 164.496 454.322 162.902C454.322 161.848 454.574 160.91 455.078 160.09C455.582 159.258 456.285 158.625 457.188 158.191C458.102 157.746 459.414 157.359 461.125 157.031C463.434 156.598 465.033 156.193 465.924 155.818V155.326C465.924 154.377 465.689 153.703 465.221 153.305C464.752 152.895 463.867 152.689 462.566 152.689C461.688 152.689 461.002 152.865 460.51 153.217C460.018 153.557 459.619 154.16 459.314 155.027ZM465.924 159.035C465.291 159.246 464.289 159.498 462.918 159.791C461.547 160.084 460.65 160.371 460.229 160.652C459.584 161.109 459.262 161.689 459.262 162.393C459.262 163.084 459.52 163.682 460.035 164.186C460.551 164.689 461.207 164.941 462.004 164.941C462.895 164.941 463.744 164.648 464.553 164.062C465.15 163.617 465.543 163.072 465.73 162.428C465.859 162.006 465.924 161.203 465.924 160.02V159.035ZM475.662 168V142.23H480.602V168H475.662Z" fill="black"/>
<circle cx="458.5" cy="125.5" r="93" stroke="#308A7B" stroke-width="9"/>
</g>
<defs>
<filter id="filter0_d_53_4" x="0" y="151" width="455" height="108" filterUnits="userSpaceOnUse" color-interpolation-filters="sRGB">
<feFlood flood-opacity="0" result="BackgroundImageFix"/>
<feColorMatrix in="SourceAlpha" type="matrix" values="0 0 0 0 0 0 0 0 0 0 0 0 0 0 0 0 0 0 127 0" result="hardAlpha"/>
<feOffset dy="4"/>
<feGaussianBlur stdDeviation="2"/>
<feComposite in2="hardAlpha" operator="out"/>
<feColorMatrix type="matrix" values="0 0 0 0 0 0 0 0 0 0 0 0 0 0 0 0 0 0 0.25 0"/>
<feBlend mode="normal" in2="BackgroundImageFix" result="effect1_dropShadow_53_4"/>
<feBlend mode="normal" in="SourceGraphic" in2="effect1_dropShadow_53_4" result="shape"/>
</filter>
<filter id="filter1_d_53_4" x="333" y="4" width="252" height="252" filterUnits="userSpaceOnUse" color-interpolation-filters="sRGB">
<feFlood flood-opacity="0" result="BackgroundImageFix"/>
<feColorMatrix in="SourceAlpha" type="matrix" values="0 0 0 0 0 0 0 0 0 0 0 0 0 0 0 0 0 0 127 0" result="hardAlpha"/>
<feOffset dy="4"/>
<feGaussianBlur stdDeviation="2"/>
<feComposite in2="hardAlpha" operator="out"/>
<feColorMatrix type="matrix" values="0 0 0 0 0 0 0 0 0 0 0 0 0 0 0 0 0 0 0.25 0"/>
<feBlend mode="normal" in2="BackgroundImageFix" result="effect1_dropShadow_53_4"/>
<feBlend mode="normal" in="SourceGraphic" in2="effect1_dropShadow_53_4" result="shape"/>
</filter>
</defs>
</svg>
