<svg width="269" height="191" viewBox="0 0 269 191" fill="none" xmlns="http://www.w3.org/2000/svg">
<path d="M241.556 153.332L240.224 152.609C257.95 136.084 267.323 116.343 267.323 95.5111C267.323 63.2401 244.456 33.5508 206.15 16.091L207.059 15.0895C245.851 32.7606 269 62.8284 269 95.5111C269 116.599 259.502 136.595 241.556 153.332Z" fill="#308A7B" fill-opacity="0.4"/>
<path d="M134.508 191C60.342 191 0 148.157 0 95.5C0 42.8426 60.342 0 134.508 0V1.19068C61.2667 1.19068 1.69271 43.4991 1.69271 95.4889C1.69271 147.49 61.2824 189.787 134.508 189.787C156.638 189.787 178.55 185.848 197.859 178.392L198.658 179.438C179.098 187.016 156.905 191 134.508 191Z" fill="#308A7B" fill-opacity="0.4"/>
<path d="M70.8588 169.011C34.6222 153.165 12.9931 125.679 12.9931 95.5H16.3629C16.3629 124.844 37.3964 151.563 72.6298 166.975L70.8588 169.011Z" fill="#308A7B" fill-opacity="0.4"/>
<path d="M134.508 181.786C121.186 181.786 108.098 180.262 95.5911 177.268L96.6726 175.009C108.835 177.925 121.562 179.405 134.523 179.405C195.383 179.405 245.929 147.034 252.057 104.102L255.411 104.347C249.079 148.48 197.107 181.786 134.508 181.786Z" fill="#308A7B" fill-opacity="0.4"/>
<path d="M251.148 82.1019C246.744 62.6392 232.669 44.8011 211.495 31.8816C190.101 18.8174 162.751 11.6287 134.508 11.6287C111.703 11.6287 89.5726 16.2468 70.4982 24.9934C48.2736 35.1866 31.3151 50.5431 22.7418 68.2365L19.5602 67.4576C28.3685 49.2634 45.8129 33.4728 68.6645 22.9903C88.2874 13.9989 111.045 9.24731 134.492 9.24731C163.55 9.24731 191.668 16.6474 213.673 30.0788C235.443 43.3656 249.926 61.7156 254.455 81.7347L251.148 82.1019Z" fill="#308A7B" fill-opacity="0.4"/>
<path d="M134.508 157.816C86.1088 157.816 46.7376 129.863 46.7376 95.5C46.7376 81.5901 53.054 68.4368 64.9813 57.4647L67.6457 58.9224C56.1729 69.4829 50.1074 82.1242 50.1074 95.5C50.1074 128.539 87.974 155.424 134.508 155.424C142.768 155.424 150.933 154.578 158.754 152.909L159.726 155.201C151.576 156.948 143.081 157.816 134.508 157.816Z" fill="#308A7B" fill-opacity="0.4"/>
<path d="M193.784 141.458L191.511 139.7C208.924 128.372 218.908 112.27 218.908 95.5111C218.908 83.7155 214.081 72.2982 204.959 62.4945L207.765 61.1814C217.263 71.3746 222.278 83.2481 222.278 95.5222C222.262 112.937 211.887 129.685 193.784 141.458Z" fill="#308A7B" fill-opacity="0.4"/>
<path d="M187.013 48.5846C171.951 40.0717 153.786 35.576 134.508 35.576C117.596 35.576 101.281 39.1147 87.3157 45.8137L85.4349 43.833C99.9483 36.8669 116.922 33.1947 134.508 33.1947C154.57 33.1947 173.456 37.8684 189.113 46.7262L187.013 48.5846Z" fill="#308A7B" fill-opacity="0.4"/>
<path d="M134.508 147.111C122.69 147.111 110.951 145.053 100.575 141.158L101.359 140.101C111.499 143.907 122.957 145.921 134.492 145.921C166.356 145.921 194.505 130.709 202.953 108.92L204.567 109.243C195.947 131.543 167.124 147.111 134.508 147.111Z" fill="#308A7B" fill-opacity="0.4"/>
<path d="M83.1152 132.011C69.3854 122.263 61.8153 109.299 61.8153 95.5111C61.8153 67.057 94.4156 43.8997 134.508 43.8997C174.584 43.8997 207.2 67.057 207.2 95.5111H205.523C205.523 67.7135 173.675 45.1015 134.523 45.1015C95.3717 45.1015 63.5237 67.7135 63.5237 95.5111C63.5237 108.976 70.9058 121.64 84.3377 131.165L83.1152 132.011Z" fill="#308A7B" fill-opacity="0.4"/>
<path d="M134.508 127.604C109.572 127.604 89.2905 113.205 89.2905 95.5C89.2905 77.7954 109.572 63.3959 134.508 63.3959V65.7884C111.437 65.7884 92.6602 79.1197 92.6602 95.5C92.6602 111.88 111.437 125.212 134.508 125.212C157.579 125.212 176.355 111.88 176.355 95.5H179.725C179.709 113.205 159.428 127.604 134.508 127.604Z" fill="#308A7B" fill-opacity="0.4"/>
<path d="M134.508 111.457C122.11 111.457 112.032 104.302 112.032 95.5H113.709C113.709 103.635 123.035 110.256 134.492 110.256C145.949 110.256 155.275 103.635 155.275 95.5C155.275 87.3655 145.949 80.7443 134.492 80.7443C128.129 80.7443 122.204 82.7696 118.223 86.3083L116.907 85.5627C121.201 81.7347 127.612 79.5425 134.492 79.5425C146.89 79.5425 156.967 86.6978 156.967 95.5C156.967 104.302 146.89 111.457 134.508 111.457Z" fill="#308A7B" fill-opacity="0.4"/>
</svg>
