<svg width="184" height="184" viewBox="0 0 184 184" fill="none" xmlns="http://www.w3.org/2000/svg">
<g filter="url(#filter0_d_32_282)">
<circle cx="92" cy="88" r="88" fill="#EEEEEE"/>
<path d="M61.7246 84.0684L69.6934 83.1895C69.8887 84.8105 70.3965 86.0117 71.2168 86.793C72.0371 87.5742 73.1211 87.9648 74.4688 87.9648C76.168 87.9648 77.6133 87.1836 78.8047 85.6211C79.9961 84.0586 80.7578 80.8164 81.0898 75.8945C79.0195 78.2969 76.4316 79.498 73.3262 79.498C69.9473 79.498 67.0273 78.1992 64.5664 75.6016C62.125 72.9844 60.9043 69.5859 60.9043 65.4062C60.9043 61.0508 62.1934 57.5449 64.7715 54.8887C67.3691 52.2129 70.6699 50.875 74.6738 50.875C79.0293 50.875 82.6035 52.5645 85.3965 55.9434C88.1895 59.3027 89.5859 64.8398 89.5859 72.5547C89.5859 80.4062 88.1309 86.0703 85.2207 89.5469C82.3105 93.0234 78.5215 94.7617 73.8535 94.7617C70.4941 94.7617 67.7793 93.873 65.709 92.0957C63.6387 90.2988 62.3105 87.623 61.7246 84.0684ZM80.3574 66.0801C80.3574 63.4238 79.7422 61.3633 78.5117 59.8984C77.3008 58.4336 75.8945 57.7012 74.293 57.7012C72.7695 57.7012 71.5 58.3066 70.4844 59.5176C69.4883 60.709 68.9902 62.6719 68.9902 65.4062C68.9902 68.1797 69.5371 70.2207 70.6309 71.5293C71.7246 72.8184 73.0918 73.4629 74.7324 73.4629C76.3145 73.4629 77.6426 72.8379 78.7168 71.5879C79.8105 70.3379 80.3574 68.502 80.3574 66.0801ZM108.863 50.875C113.023 50.875 116.275 52.3594 118.619 55.3281C121.412 58.8438 122.809 64.6738 122.809 72.8184C122.809 80.9434 121.402 86.7832 118.59 90.3379C116.266 93.2676 113.023 94.7324 108.863 94.7324C104.684 94.7324 101.314 93.1309 98.7559 89.9277C96.1973 86.7051 94.918 80.9727 94.918 72.7305C94.918 64.6445 96.3242 58.8242 99.1367 55.2695C101.461 52.3398 104.703 50.875 108.863 50.875ZM108.863 57.7012C107.867 57.7012 106.979 58.0234 106.197 58.668C105.416 59.293 104.811 60.4258 104.381 62.0664C103.814 64.1953 103.531 67.7793 103.531 72.8184C103.531 77.8574 103.785 81.3242 104.293 83.2188C104.801 85.0938 105.436 86.3438 106.197 86.9688C106.979 87.5938 107.867 87.9062 108.863 87.9062C109.859 87.9062 110.748 87.5938 111.529 86.9688C112.311 86.3242 112.916 85.1816 113.346 83.541C113.912 81.4316 114.195 77.8574 114.195 72.8184C114.195 67.7793 113.941 64.3223 113.434 62.4473C112.926 60.5527 112.281 59.293 111.5 58.668C110.738 58.0234 109.859 57.7012 108.863 57.7012Z" fill="black"/>
<path d="M83.8613 110.852L78.9922 111.73C78.8281 110.758 78.4531 110.025 77.8672 109.533C77.293 109.041 76.543 108.795 75.6172 108.795C74.3867 108.795 73.4023 109.223 72.6641 110.078C71.9375 110.922 71.5742 112.34 71.5742 114.332C71.5742 116.547 71.9434 118.111 72.6816 119.025C73.4316 119.939 74.4336 120.396 75.6875 120.396C76.625 120.396 77.3926 120.133 77.9902 119.605C78.5879 119.066 79.0098 118.146 79.2559 116.846L84.1074 117.672C83.6035 119.898 82.6367 121.58 81.207 122.717C79.7773 123.854 77.8613 124.422 75.459 124.422C72.7285 124.422 70.5488 123.561 68.9199 121.838C67.3027 120.115 66.4941 117.73 66.4941 114.684C66.4941 111.602 67.3086 109.205 68.9375 107.494C70.5664 105.771 72.7695 104.91 75.5469 104.91C77.8203 104.91 79.625 105.402 80.9609 106.387C82.3086 107.359 83.2754 108.848 83.8613 110.852ZM91.3145 111.027L86.832 110.219C87.3359 108.414 88.2031 107.078 89.4336 106.211C90.6641 105.344 92.4922 104.91 94.918 104.91C97.1211 104.91 98.7617 105.174 99.8398 105.701C100.918 106.217 101.674 106.879 102.107 107.688C102.553 108.484 102.775 109.955 102.775 112.1L102.723 117.865C102.723 119.506 102.799 120.719 102.951 121.504C103.115 122.277 103.414 123.109 103.848 124H98.9609C98.832 123.672 98.6738 123.186 98.4863 122.541C98.4043 122.248 98.3457 122.055 98.3105 121.961C97.4668 122.781 96.5645 123.396 95.6035 123.807C94.6426 124.217 93.6172 124.422 92.5273 124.422C90.6055 124.422 89.0879 123.9 87.9746 122.857C86.873 121.814 86.3223 120.496 86.3223 118.902C86.3223 117.848 86.5742 116.91 87.0781 116.09C87.582 115.258 88.2852 114.625 89.1875 114.191C90.1016 113.746 91.4141 113.359 93.125 113.031C95.4336 112.598 97.0332 112.193 97.9238 111.818V111.326C97.9238 110.377 97.6895 109.703 97.2207 109.305C96.752 108.895 95.8672 108.689 94.5664 108.689C93.6875 108.689 93.002 108.865 92.5098 109.217C92.0176 109.557 91.6191 110.16 91.3145 111.027ZM97.9238 115.035C97.291 115.246 96.2891 115.498 94.918 115.791C93.5469 116.084 92.6504 116.371 92.2285 116.652C91.584 117.109 91.2617 117.689 91.2617 118.393C91.2617 119.084 91.5195 119.682 92.0352 120.186C92.5508 120.689 93.207 120.941 94.0039 120.941C94.8945 120.941 95.7441 120.648 96.5527 120.062C97.1504 119.617 97.543 119.072 97.7305 118.428C97.8594 118.006 97.9238 117.203 97.9238 116.02V115.035ZM107.662 124V98.2305H112.602V124H107.662Z" fill="black"/>
<circle cx="91.6116" cy="87.6116" r="71.1116" stroke="#308A7B" stroke-width="9"/>
</g>
<defs>
<filter id="filter0_d_32_282" x="0" y="0" width="184" height="184" filterUnits="userSpaceOnUse" color-interpolation-filters="sRGB">
<feFlood flood-opacity="0" result="BackgroundImageFix"/>
<feColorMatrix in="SourceAlpha" type="matrix" values="0 0 0 0 0 0 0 0 0 0 0 0 0 0 0 0 0 0 127 0" result="hardAlpha"/>
<feOffset dy="4"/>
<feGaussianBlur stdDeviation="2"/>
<feComposite in2="hardAlpha" operator="out"/>
<feColorMatrix type="matrix" values="0 0 0 0 0 0 0 0 0 0 0 0 0 0 0 0 0 0 0.25 0"/>
<feBlend mode="normal" in2="BackgroundImageFix" result="effect1_dropShadow_32_282"/>
<feBlend mode="normal" in="SourceGraphic" in2="effect1_dropShadow_32_282" result="shape"/>
</filter>
</defs>
</svg>
