<svg width="594" height="786" viewBox="0 0 594 786" fill="none" xmlns="http://www.w3.org/2000/svg">
<path d="M308.744 30.5939C302.262 37.599 291.78 37.599 285.299 30.5939C278.818 23.5889 278.818 12.2589 285.299 5.25381C291.78 -1.75127 302.262 -1.75127 308.744 5.25381C315.225 12.2589 315.225 23.5889 308.744 30.5939ZM378.853 81.0305C372.372 74.0254 361.889 74.0254 355.408 81.0305C348.927 88.0355 348.927 99.3655 355.408 106.371C361.889 113.376 372.372 113.376 378.853 106.371C385.334 99.3655 385.334 88.0355 378.853 81.0305ZM448.962 156.807C442.481 149.802 431.999 149.802 425.518 156.807C419.036 163.812 419.036 175.142 425.518 182.147C431.999 189.152 442.481 189.152 448.962 182.147C455.444 175.142 455.444 163.812 448.962 156.807ZM519.072 232.584C512.591 225.579 502.108 225.579 495.627 232.584C489.146 239.589 489.146 250.919 495.627 257.924C502.108 264.929 512.591 264.929 519.072 257.924C525.553 250.919 525.553 239.589 519.072 232.584ZM589.181 308.36C582.7 301.355 572.218 301.355 565.736 308.36C559.255 315.365 559.255 326.695 565.736 333.701C572.218 340.706 582.7 340.706 589.181 333.701C595.606 326.695 595.606 315.365 589.181 308.36ZM238.634 81.0305C232.153 74.0254 221.67 74.0254 215.189 81.0305C208.708 88.0355 208.708 99.3655 215.189 106.371C221.67 113.376 232.153 113.376 238.634 106.371C245.115 99.3655 245.115 88.0355 238.634 81.0305ZM308.744 156.807C302.262 149.802 291.78 149.802 285.299 156.807C278.818 163.812 278.818 175.142 285.299 182.147C291.78 189.152 302.262 189.152 308.744 182.147C315.225 175.142 315.225 163.812 308.744 156.807ZM378.853 232.584C372.372 225.579 361.889 225.579 355.408 232.584C348.927 239.589 348.927 250.919 355.408 257.924C361.889 264.929 372.372 264.929 378.853 257.924C385.334 250.919 385.334 239.589 378.853 232.584ZM448.962 308.36C442.481 301.355 431.999 301.355 425.518 308.36C419.036 315.365 419.036 326.695 425.518 333.701C431.999 340.706 442.481 340.706 448.962 333.701C455.444 326.695 455.444 315.365 448.962 308.36ZM519.072 384.137C512.591 377.132 502.108 377.132 495.627 384.137C489.146 391.142 489.146 402.472 495.627 409.477C502.108 416.482 512.591 416.482 519.072 409.477C525.553 402.472 525.553 391.142 519.072 384.137ZM168.525 156.807C162.044 149.802 151.561 149.802 145.08 156.807C138.599 163.812 138.599 175.142 145.08 182.147C151.561 189.152 162.044 189.152 168.525 182.147C175.006 175.142 175.006 163.812 168.525 156.807ZM238.634 232.584C232.153 225.579 221.67 225.579 215.189 232.584C208.708 239.589 208.708 250.919 215.189 257.924C221.67 264.929 232.153 264.929 238.634 257.924C245.115 250.919 245.115 239.589 238.634 232.584ZM308.744 308.36C302.262 301.355 291.78 301.355 285.299 308.36C278.818 315.365 278.818 326.695 285.299 333.701C291.78 340.706 302.262 340.706 308.744 333.701C315.225 326.695 315.225 315.365 308.744 308.36ZM378.853 384.137C372.372 377.132 361.889 377.132 355.408 384.137C348.927 391.142 348.927 402.472 355.408 409.477C361.889 416.482 372.372 416.482 378.853 409.477C385.334 402.472 385.334 391.142 378.853 384.137ZM448.962 459.914C442.481 452.909 431.999 452.909 425.518 459.914C419.036 466.919 419.036 478.249 425.518 485.254C431.999 492.259 442.481 492.259 448.962 485.254C455.444 478.249 455.444 466.858 448.962 459.914ZM98.4153 232.584C91.9341 225.579 81.4515 225.579 74.9703 232.584C68.4892 239.589 68.4892 250.919 74.9703 257.924C81.4515 264.929 91.9341 264.929 98.4153 257.924C104.896 250.919 104.896 239.589 98.4153 232.584ZM168.525 308.36C162.044 301.355 151.561 301.355 145.08 308.36C138.599 315.365 138.599 326.695 145.08 333.701C151.561 340.706 162.044 340.706 168.525 333.701C175.006 326.695 175.006 315.365 168.525 308.36ZM238.634 384.137C232.153 377.132 221.67 377.132 215.189 384.137C208.708 391.142 208.708 402.472 215.189 409.477C221.67 416.482 232.153 416.482 238.634 409.477C245.115 402.472 245.115 391.142 238.634 384.137ZM308.744 459.914C302.262 452.909 291.78 452.909 285.299 459.914C278.818 466.919 278.818 478.249 285.299 485.254C291.78 492.259 302.262 492.259 308.744 485.254C315.225 478.249 315.225 466.858 308.744 459.914ZM378.853 535.69C372.372 528.685 361.889 528.685 355.408 535.69C348.927 542.695 348.927 554.025 355.408 561.03C361.889 568.036 372.372 568.036 378.853 561.03C385.334 554.025 385.334 542.635 378.853 535.69ZM28.3058 308.36C21.8246 301.355 11.3421 301.355 4.86088 308.36C-1.62029 315.365 -1.62029 326.695 4.86088 333.701C11.3421 340.706 21.8246 340.706 28.3058 333.701C34.787 326.695 34.787 315.365 28.3058 308.36ZM98.4153 384.137C91.9341 377.132 81.4515 377.132 74.9703 384.137C68.4892 391.142 68.4892 402.472 74.9703 409.477C81.4515 416.482 91.9341 416.482 98.4153 409.477C104.896 402.472 104.896 391.142 98.4153 384.137ZM168.525 459.914C162.044 452.909 151.561 452.909 145.08 459.914C138.599 466.919 138.599 478.249 145.08 485.254C151.561 492.259 162.044 492.259 168.525 485.254C175.006 478.249 175.006 466.858 168.525 459.914ZM238.634 535.69C232.153 528.685 221.67 528.685 215.189 535.69C208.708 542.695 208.708 554.025 215.189 561.03C221.67 568.036 232.153 568.036 238.634 561.03C245.115 554.025 245.115 542.635 238.634 535.69ZM308.744 611.406C302.262 604.401 291.78 604.401 285.299 611.406C278.818 618.411 278.818 629.741 285.299 636.746C291.78 643.751 302.262 643.751 308.744 636.746C315.225 629.802 315.225 618.411 308.744 611.406Z" fill="#ACD0CA" fill-opacity="0.4"/>
<g filter="url(#filter0_d_60_4)">
<rect x="48" y="25" width="354" height="320" rx="29" fill="#EEEEEE"/>
</g>
<ellipse rx="61.7224" ry="61.7037" transform="matrix(0.685509 0.728064 -0.724247 0.689541 217 166.515)" fill="#EB7A13"/>
<path d="M259.311 211.423C265.18 205.836 269.897 199.141 273.192 191.72C276.488 184.3 278.298 176.299 278.518 168.176C278.739 160.052 277.366 151.964 274.479 144.374C271.591 136.783 267.245 129.839 261.689 123.938L217 166.485L259.311 211.423Z" fill="#0500FF"/>
<path d="M164.57 134.264C156.887 146.839 153.931 161.763 156.234 176.345C158.537 190.926 165.948 204.205 177.13 213.785C188.312 223.365 202.529 228.616 217.216 228.59C231.902 228.564 248.6 221.613 259.732 211.994L217.056 166.689L164.57 134.264Z" fill="#4D308A"/>
<path d="M82.8489 722.464C82.8489 722.464 99.4398 790.857 203.142 773.355L220.811 727.564L190.964 692.745L108.381 663.522L82.8489 722.464Z" fill="#272727"/>
<path d="M413.322 594.175C413.322 618.423 401.666 624.779 372.34 638.086L121.974 751.54C99.3425 751.54 81.0271 731.877 81.0271 707.619V330.052C81.0271 305.794 94.2839 297.763 121.974 286.15L372.34 172.696C394.98 172.696 413.322 192.378 413.322 216.637V594.184" fill="#308A7B"/>
<path d="M103.8 746.965C103.8 746.965 197.676 775.818 203.142 773.355C208.616 770.882 199.631 729.696 199.631 729.696L165.706 690.438L134.116 688.861L128.571 697.329L103.8 746.965Z" fill="#272727"/>
<path d="M366.45 198.861L88.6593 324.084L101.704 404.364L143.057 408.812L281.055 384.944L366.839 336.7L430.002 243.912C416.188 217.366 395.935 200.896 366.45 198.861Z" fill="#F4F5F5"/>
<path d="M161.761 355.73C161.761 348.683 162.902 343.046 165.157 338.296C136.734 335.454 109.875 326.615 90.2861 307.672C83.786 314.106 80.6022 322.079 80.6022 333.935V711.512C80.6022 735.77 98.9088 755.433 121.531 755.433L161.929 737.104C161.809 735.829 161.747 734.549 161.744 733.268V355.73H161.761Z" fill="#272727"/>
<path d="M501.715 631.477C501.715 655.725 490.095 662.101 460.769 675.388L203.15 773.404C180.546 773.404 162.222 753.74 162.222 729.473V351.944C162.222 327.676 175.496 319.626 203.15 308.033L460.769 210.017C483.374 210.017 501.715 229.642 501.715 253.919V631.477Z" fill="#308A7B"/>
<path d="M395.051 325.146C395.306 325.88 395.425 326.662 395.403 327.447C395.381 328.233 395.218 329.005 394.923 329.72C394.627 330.436 394.206 331.079 393.683 331.614C393.16 332.149 392.546 332.564 391.876 332.836L254.833 389.529C253.471 390.101 251.96 390.066 250.622 389.429C249.284 388.793 248.224 387.606 247.67 386.122C247.408 385.387 247.283 384.602 247.303 383.814C247.323 383.025 247.486 382.249 247.784 381.531C248.082 380.814 248.508 380.169 249.037 379.637C249.566 379.104 250.187 378.694 250.863 378.432L387.896 321.748C389.256 321.178 390.764 321.214 392.1 321.848C393.436 322.483 394.495 323.666 395.051 325.146ZM395.051 352.236C395.308 352.969 395.43 353.752 395.409 354.537C395.388 355.322 395.224 356.095 394.929 356.81C394.633 357.526 394.211 358.169 393.687 358.702C393.163 359.235 392.547 359.648 391.876 359.917L254.833 416.581C253.474 417.159 251.963 417.129 250.624 416.496C249.285 415.862 248.224 414.677 247.67 413.193C247.411 412.458 247.288 411.674 247.309 410.886C247.33 410.098 247.494 409.323 247.791 408.606C248.089 407.889 248.514 407.245 249.042 406.712C249.569 406.179 250.188 405.768 250.863 405.503L387.896 348.829C389.256 348.254 390.766 348.287 392.103 348.922C393.44 349.557 394.498 350.743 395.051 352.227M348.409 399.448C349.515 402.505 348.807 405.649 346.888 406.457L253.295 445.18C251.358 445.959 248.882 444.148 247.785 441.092C246.679 438.025 247.387 434.891 249.315 434.083L342.908 395.389C344.845 394.581 347.339 396.382 348.409 399.458" fill="white"/>
<path d="M80 74L87 65V69.99L98 70V78H87V83L80 74Z" stroke="black" stroke-width="2" stroke-linecap="round" stroke-linejoin="round"/>
<path d="M162.64 89H157.64L154.32 81.32C154.24 81.1067 154.08 80.72 153.84 80.16C153.627 79.5733 153.373 78.92 153.08 78.2C152.813 77.4533 152.533 76.6933 152.24 75.92C151.947 75.1467 151.68 74.44 151.44 73.8C151.44 74.4933 151.44 75.2933 151.44 76.2C151.44 77.1067 151.44 78.0267 151.44 78.96C151.44 79.8933 151.427 80.7733 151.4 81.6C151.4 82.4267 151.387 83.08 151.36 83.56L151.16 89H145.08L146.68 61.92H152.36L158.6 77.52C158.787 78 159.027 78.68 159.32 79.56C159.64 80.4133 159.947 81.3467 160.24 82.36C160.533 81.3733 160.827 80.4533 161.12 79.6C161.44 78.72 161.707 78.0267 161.92 77.52L168.16 61.92H173.72L175.32 89H169.12L168.88 83.56C168.853 83.0533 168.827 82.3867 168.8 81.56C168.8 80.7333 168.8 79.8667 168.8 78.96C168.8 78.0267 168.8 77.1067 168.8 76.2C168.827 75.2667 168.84 74.4667 168.84 73.8C168.627 74.36 168.387 75 168.12 75.72C167.88 76.4133 167.627 77.0933 167.36 77.76C167.093 78.4267 166.84 79.0533 166.6 79.64C166.36 80.2 166.173 80.64 166.04 80.96L162.64 89ZM191.534 61.56C193.641 61.56 195.454 61.88 196.974 62.52C198.494 63.16 199.747 64.0667 200.734 65.24C201.721 66.4133 202.441 67.8533 202.894 69.56C203.374 71.24 203.614 73.1333 203.614 75.24C203.614 77.32 203.347 79.2267 202.814 80.96C202.307 82.6667 201.534 84.1333 200.494 85.36C199.454 86.5867 198.147 87.5467 196.574 88.24C195.001 88.9067 193.147 89.24 191.014 89.24C188.907 89.24 187.081 88.9467 185.534 88.36C184.014 87.7467 182.761 86.8667 181.774 85.72C180.787 84.5467 180.054 83.1333 179.574 81.48C179.121 79.8267 178.894 77.9333 178.894 75.8C178.894 73.72 179.147 71.8133 179.654 70.08C180.187 68.32 180.974 66.8133 182.014 65.56C183.054 64.28 184.361 63.2933 185.934 62.6C187.534 61.9067 189.401 61.56 191.534 61.56ZM190.974 66.24C189.241 66.24 187.974 67.0533 187.174 68.68C186.401 70.28 186.014 72.5067 186.014 75.36C186.014 76.72 186.094 77.96 186.254 79.08C186.441 80.2 186.734 81.1733 187.134 82C187.561 82.8 188.134 83.4267 188.854 83.88C189.574 84.3333 190.481 84.56 191.574 84.56C193.307 84.56 194.561 83.7867 195.334 82.24C196.107 80.6933 196.494 78.4933 196.494 75.64C196.494 74.28 196.401 73.0267 196.214 71.88C196.054 70.7333 195.761 69.7467 195.334 68.92C194.934 68.0667 194.374 67.4133 193.654 66.96C192.934 66.48 192.041 66.24 190.974 66.24ZM223.628 61.92H230.228V89H224.588L216.868 77.32C216.708 77.08 216.482 76.7333 216.188 76.28C215.922 75.8267 215.628 75.36 215.308 74.88C215.015 74.3733 214.722 73.8933 214.428 73.44C214.162 72.96 213.935 72.5733 213.748 72.28C213.775 72.68 213.802 73.1733 213.828 73.76C213.882 74.32 213.922 74.8933 213.948 75.48C214.002 76.0667 214.042 76.64 214.068 77.2C214.095 77.76 214.108 78.2267 214.108 78.6L214.228 89H207.628V61.92H213.028L220.828 73.52C221.068 73.8933 221.335 74.32 221.628 74.8C221.922 75.2533 222.215 75.72 222.508 76.2C222.828 76.68 223.122 77.1467 223.388 77.6C223.655 78.0267 223.882 78.4 224.068 78.72C224.042 78.2933 224.015 77.8 223.988 77.24C223.962 76.68 223.922 76.1067 223.868 75.52C223.842 74.9067 223.815 74.32 223.788 73.76C223.762 73.2 223.748 72.7067 223.748 72.28L223.628 61.92ZM235.207 61.92C235.393 61.92 235.82 61.92 236.487 61.92C237.18 61.8933 237.967 61.88 238.847 61.88C239.727 61.88 240.633 61.88 241.567 61.88C242.527 61.8533 243.38 61.84 244.127 61.84C246.393 61.84 248.34 62.1867 249.967 62.88C251.62 63.5467 252.98 64.4933 254.047 65.72C255.113 66.9467 255.9 68.4133 256.407 70.12C256.913 71.8 257.167 73.6533 257.167 75.68C257.167 77.76 256.9 79.6267 256.367 81.28C255.86 82.9333 255.06 84.3467 253.967 85.52C252.9 86.6667 251.54 87.5467 249.887 88.16C248.233 88.7733 246.273 89.08 244.007 89.08C243.233 89.08 242.527 89.0667 241.887 89.04C241.247 89.04 240.593 89.04 239.927 89.04C239.26 89.04 238.553 89.0267 237.807 89C237.06 89 236.193 89 235.207 89V61.92ZM243.847 66.48C243.393 66.48 243.047 66.4933 242.807 66.52C242.567 66.52 242.233 66.52 241.807 66.52V84.4C242.153 84.4267 242.46 84.44 242.727 84.44C242.993 84.44 243.367 84.44 243.847 84.44C245.02 84.44 245.993 84.24 246.767 83.84C247.567 83.44 248.207 82.8667 248.687 82.12C249.167 81.3733 249.513 80.4667 249.727 79.4C249.94 78.3067 250.047 77.0933 250.047 75.76C250.047 69.5733 247.98 66.48 243.847 66.48ZM267.263 61.92H273.143L283.063 89H276.383L274.383 82.48H265.623L263.543 89H256.983L267.263 61.92ZM272.903 77.6C272.637 76.8267 272.357 76.0267 272.063 75.2C271.797 74.3467 271.53 73.52 271.263 72.72C271.023 71.92 270.797 71.1733 270.583 70.48C270.37 69.76 270.183 69.16 270.023 68.68C269.863 69.1867 269.677 69.8 269.463 70.52C269.25 71.2133 269.01 71.96 268.743 72.76C268.503 73.56 268.237 74.3733 267.943 75.2C267.677 76.0267 267.41 76.8267 267.143 77.6H272.903ZM288.548 78.6L280.188 61.92H287.148L291.947 72.28L296.868 61.92H303.748L295.108 78.96V89H288.548V78.6Z" fill="#040404"/>
<path d="M367 74L360 65V69.99L349 70V78H360V83L367 74Z" stroke="black" stroke-width="2" stroke-linecap="round" stroke-linejoin="round"/>
<defs>
<filter id="filter0_d_60_4" x="41" y="21" width="370" height="336" filterUnits="userSpaceOnUse" color-interpolation-filters="sRGB">
<feFlood flood-opacity="0" result="BackgroundImageFix"/>
<feColorMatrix in="SourceAlpha" type="matrix" values="0 0 0 0 0 0 0 0 0 0 0 0 0 0 0 0 0 0 127 0" result="hardAlpha"/>
<feMorphology radius="4" operator="dilate" in="SourceAlpha" result="effect1_dropShadow_60_4"/>
<feOffset dx="1" dy="4"/>
<feGaussianBlur stdDeviation="2"/>
<feComposite in2="hardAlpha" operator="out"/>
<feColorMatrix type="matrix" values="0 0 0 0 0 0 0 0 0 0 0 0 0 0 0 0 0 0 0.26 0"/>
<feBlend mode="normal" in2="BackgroundImageFix" result="effect1_dropShadow_60_4"/>
<feBlend mode="normal" in="SourceGraphic" in2="effect1_dropShadow_60_4" result="shape"/>
</filter>
</defs>
</svg>
