<svg width="319" height="392" viewBox="0 0 319 392" fill="none" xmlns="http://www.w3.org/2000/svg">
<path d="M165.629 19.3516C162.165 23.6134 156.562 23.6134 153.098 19.3516C149.634 15.0897 149.634 8.19656 153.098 3.93468C156.562 -0.327187 162.165 -0.327187 165.629 3.93468C169.093 8.19656 169.093 15.0897 165.629 19.3516ZM203.099 50.037C199.635 45.7752 194.033 45.7752 190.569 50.037C187.105 54.2989 187.105 61.192 190.569 65.4539C194.033 69.7157 199.635 69.7157 203.099 65.4539C206.563 61.192 206.563 54.2989 203.099 50.037ZM240.569 96.1393C237.106 91.8775 231.503 91.8775 228.039 96.1393C224.575 100.401 224.575 107.294 228.039 111.556C231.503 115.818 237.106 115.818 240.569 111.556C244.033 107.294 244.033 100.401 240.569 96.1393ZM278.04 142.242C274.576 137.98 268.973 137.98 265.51 142.242C262.046 146.504 262.046 153.397 265.51 157.659C268.973 161.92 274.576 161.92 278.04 157.659C281.504 153.397 281.504 146.504 278.04 142.242ZM315.51 188.344C312.046 184.082 306.444 184.082 302.98 188.344C299.516 192.606 299.516 199.499 302.98 203.761C306.444 208.023 312.046 208.023 315.51 203.761C318.944 199.499 318.944 192.606 315.51 188.344ZM128.158 50.037C124.694 45.7752 119.092 45.7752 115.628 50.037C112.164 54.2989 112.164 61.192 115.628 65.4539C119.092 69.7157 124.694 69.7157 128.158 65.4539C131.622 61.192 131.622 54.2989 128.158 50.037ZM165.629 96.1393C162.165 91.8775 156.562 91.8775 153.098 96.1393C149.634 100.401 149.634 107.294 153.098 111.556C156.562 115.818 162.165 115.818 165.629 111.556C169.093 107.294 169.093 100.401 165.629 96.1393ZM203.099 142.242C199.635 137.98 194.033 137.98 190.569 142.242C187.105 146.504 187.105 153.397 190.569 157.659C194.033 161.92 199.635 161.92 203.099 157.659C206.563 153.397 206.563 146.504 203.099 142.242ZM240.569 188.344C237.106 184.082 231.503 184.082 228.039 188.344C224.575 192.606 224.575 199.499 228.039 203.761C231.503 208.023 237.106 208.023 240.569 203.761C244.033 199.499 244.033 192.606 240.569 188.344ZM278.04 234.446C274.576 230.184 268.973 230.184 265.51 234.446C262.046 238.708 262.046 245.601 265.51 249.863C268.973 254.125 274.576 254.125 278.04 249.863C281.504 245.601 281.504 238.708 278.04 234.446ZM90.6878 96.1393C87.2239 91.8775 81.6214 91.8775 78.1575 96.1393C74.6936 100.401 74.6936 107.294 78.1575 111.556C81.6214 115.818 87.2239 115.818 90.6878 111.556C94.1517 107.294 94.1517 100.401 90.6878 96.1393ZM128.158 142.242C124.694 137.98 119.092 137.98 115.628 142.242C112.164 146.504 112.164 153.397 115.628 157.659C119.092 161.92 124.694 161.92 128.158 157.659C131.622 153.397 131.622 146.504 128.158 142.242ZM165.629 188.344C162.165 184.082 156.562 184.082 153.098 188.344C149.634 192.606 149.634 199.499 153.098 203.761C156.562 208.023 162.165 208.023 165.629 203.761C169.093 199.499 169.093 192.606 165.629 188.344ZM203.099 234.446C199.635 230.184 194.033 230.184 190.569 234.446C187.105 238.708 187.105 245.601 190.569 249.863C194.033 254.125 199.635 254.125 203.099 249.863C206.563 245.601 206.563 238.708 203.099 234.446ZM240.569 280.549C237.106 276.287 231.503 276.287 228.039 280.549C224.575 284.811 224.575 291.704 228.039 295.966C231.503 300.227 237.106 300.227 240.569 295.966C244.033 291.704 244.033 284.774 240.569 280.549ZM53.2174 142.242C49.7534 137.98 44.151 137.98 40.6871 142.242C37.2232 146.504 37.2232 153.397 40.6871 157.659C44.151 161.92 49.7534 161.92 53.2174 157.659C56.6813 153.397 56.6813 146.504 53.2174 142.242ZM90.6878 188.344C87.2239 184.082 81.6214 184.082 78.1575 188.344C74.6936 192.606 74.6936 199.499 78.1575 203.761C81.6214 208.023 87.2239 208.023 90.6878 203.761C94.1517 199.499 94.1517 192.606 90.6878 188.344ZM128.158 234.446C124.694 230.184 119.092 230.184 115.628 234.446C112.164 238.708 112.164 245.601 115.628 249.863C119.092 254.125 124.694 254.125 128.158 249.863C131.622 245.601 131.622 238.708 128.158 234.446ZM165.629 280.549C162.165 276.287 156.562 276.287 153.098 280.549C149.634 284.811 149.634 291.704 153.098 295.966C156.562 300.227 162.165 300.227 165.629 295.966C169.093 291.704 169.093 284.774 165.629 280.549ZM203.099 326.651C199.635 322.389 194.033 322.389 190.569 326.651C187.105 330.913 187.105 337.806 190.569 342.068C194.033 346.33 199.635 346.33 203.099 342.068C206.563 337.806 206.563 330.876 203.099 326.651ZM15.7469 188.344C12.283 184.082 6.68055 184.082 3.21664 188.344C-0.247263 192.606 -0.247263 199.499 3.21664 203.761C6.68055 208.023 12.283 208.023 15.7469 203.761C19.2108 199.499 19.2108 192.606 15.7469 188.344ZM53.2174 234.446C49.7534 230.184 44.151 230.184 40.6871 234.446C37.2232 238.708 37.2232 245.601 40.6871 249.863C44.151 254.125 49.7534 254.125 53.2174 249.863C56.6813 245.601 56.6813 238.708 53.2174 234.446ZM90.6878 280.549C87.2239 276.287 81.6214 276.287 78.1575 280.549C74.6936 284.811 74.6936 291.704 78.1575 295.966C81.6214 300.227 87.2239 300.227 90.6878 295.966C94.1517 291.704 94.1517 284.774 90.6878 280.549ZM128.158 326.651C124.694 322.389 119.092 322.389 115.628 326.651C112.164 330.913 112.164 337.806 115.628 342.068C119.092 346.33 124.694 346.33 128.158 342.068C131.622 337.806 131.622 330.876 128.158 326.651ZM165.629 372.716C162.165 368.454 156.562 368.454 153.098 372.716C149.634 376.978 149.634 383.871 153.098 388.133C156.562 392.395 162.165 392.395 165.629 388.133C169.093 383.908 169.093 376.978 165.629 372.716Z" fill="#ACD0CA" fill-opacity="0.4"/>
</svg>
