<svg width="356" height="552" viewBox="0 0 356 552" fill="none" xmlns="http://www.w3.org/2000/svg">
<path d="M177.906 136.439L199.754 552H156.058L177.906 136.439Z" fill="#308A7B"/>
<path d="M139.032 390.5C183.719 406.708 173.861 434.742 173.861 434.742C173.861 434.742 137.061 457.083 91.7167 440.875C60.8303 429.924 33.8869 386.558 33.8869 386.558C33.8869 386.558 107.489 379.549 139.032 390.5Z" fill="#308A7B"/>
<path d="M218.098 413.686C175.108 429.894 184.591 457.928 184.591 457.928C184.591 457.928 219.995 480.268 263.617 464.061C293.33 453.11 319.25 409.744 319.25 409.744C319.25 409.744 248.444 402.735 218.098 413.686Z" fill="#308A7B"/>
<path d="M113.215 179.617C146.093 264.09 159.422 308.549 217.181 308.549C274.94 308.549 362.023 160.944 278.495 112.927C196.744 65.8001 199.409 0 199.409 0C199.409 0 59.0107 41.792 113.215 179.617Z" fill="#871212"/>
<path d="M287.245 197.459C244.57 278.371 241.013 326.384 183.224 326.384C125.435 326.384 20.5247 132.552 113.877 103.211C229.456 66.7562 258.795 24.0775 258.795 24.0775C258.795 24.0775 350.369 76.5367 287.245 197.459Z" fill="#991D1D"/>
<path d="M294.281 124.832C294.281 90.0574 143.27 60.633 116.621 6.24234C116.621 6.24234 43.7798 58.8497 71.3171 113.24C87.3066 143.556 293.393 242.529 294.281 124.832Z" fill="#AD2727"/>
<path d="M212.819 155.687C305.401 271.291 255.549 340.653 179.881 340.653C104.213 340.653 21.424 267.734 42.789 182.365C64.154 96.9965 33.8869 24.0775 33.8869 24.0775C33.8869 24.0775 142.492 67.6511 212.819 155.687Z" fill="#CC3636"/>
<path d="M129.845 146.825C24.8781 252.628 111.164 339.761 186.776 339.761C262.388 339.761 323.767 268.632 323.767 181.5C323.767 94.3674 346.895 41.021 346.895 41.021C346.895 41.021 204.567 71.2506 129.845 146.825Z" fill="#E24B4B"/>
<path d="M187.891 303.442C304.513 301.669 253.769 347.787 178.099 347.787C-7.96177 347.787 0.0503779 185.486 0.0503779 185.486C0.0503779 185.486 83.7331 304.329 187.891 303.442Z" fill="#308A7B"/>
<path d="M187.727 303.509C156.6 316.027 74.78 334.806 148.595 349.113C294.448 378.622 355.813 189.945 355.813 189.945C355.813 189.945 281.108 265.058 187.727 303.509Z" fill="#308A7B"/>
</svg>
