<svg width="1440" height="318" viewBox="0 0 1440 318" fill="none" xmlns="http://www.w3.org/2000/svg">
    <path fill-rule="evenodd" clip-rule="evenodd" d="M-211 0L-66.1174 22.1703C78.7652 44.3406 358.735 41 648.5 41C938.265 41 1237.83 44.3406 1382.71 22.1703L1527.59 0V155.192H1382.71C1237.83 155.192 948.061 155.192 658.296 155.192C368.53 155.192 78.7652 155.192 -66.1174 155.192H-211V0Z" fill="#308A7B"/>
    <path fill-rule="evenodd" clip-rule="evenodd" d="M-217 318L-71.5833 294.714C73.8333 271.429 336.86 249.825 627.694 249.825C918.527 249.825 1237.17 271.429 1382.58 294.714L1528 318V155H1382.58C1237.17 155 946.333 155 655.5 155C364.667 155 73.8333 155 -71.5833 155H-217V318Z" fill="#308A7B"/>
    </svg>
    