<svg width="226" height="700" viewBox="0 0 226 700" fill="none" xmlns="http://www.w3.org/2000/svg">
<path d="M115.305 166H118.305V163H115.305V166ZM0.304693 166H-2.69531V169H0.304693V166ZM0.304693 88V85H-2.69531V88H0.304693ZM75.3047 80L74.5069 77.108L74.4937 77.1117L74.4805 77.1154L75.3047 80ZM121.305 54L123.486 56.0598L123.513 56.0305L123.54 56.0004L121.305 54ZM151.305 -4.76837e-05V-3.00005H149.219L148.492 -1.04461L151.305 -4.76837e-05ZM225.305 -4.76837e-05H228.305V-3.00005H225.305V-4.76837e-05ZM225.305 700V703H228.305V700H225.305ZM115.305 700H112.305V703H115.305V700ZM115.305 163H0.304693V169H115.305V163ZM3.30469 166V88H-2.69531V166H3.30469ZM0.304693 91C31.7684 91 57.0815 88.3266 76.1288 82.8846L74.4805 77.1154C56.1946 82.3399 31.5077 85 0.304693 85V91ZM76.1025 82.892C95.8505 77.4442 111.702 68.5363 123.486 56.0598L119.124 51.9401C108.24 63.4637 93.4256 71.8891 74.5069 77.108L76.1025 82.892ZM123.54 56.0004C135.212 42.956 145.375 24.5808 154.117 1.04451L148.492 -1.04461C139.901 22.0858 130.064 39.7107 119.069 51.9996L123.54 56.0004ZM151.305 2.99995H225.305V-3.00005H151.305V2.99995ZM222.305 -4.76837e-05V700H228.305V-4.76837e-05H222.305ZM225.305 697H115.305V703H225.305V697ZM118.305 700V166H112.305V700H118.305Z" fill="#308A7B" fill-opacity="0.2"/>
</svg>
