<svg width="455" height="108" viewBox="0 0 455 108" fill="none" xmlns="http://www.w3.org/2000/svg">
<g filter="url(#filter0_d_32_256)">
<rect x="4" width="447" height="100" rx="50" fill="#EEEEEE"/>
</g>
<path d="M57.9129 62.7995L48.4988 53.0942C49.9597 51.1472 50.7499 48.7667 50.7499 46.2628C50.7499 43.2657 49.6153 40.4554 47.5635 38.3364C45.5118 36.2175 42.7786 35.0515 39.875 35.0515C36.9713 35.0515 34.2381 36.2212 32.1864 38.3364C30.131 40.4516 29 43.2657 29 46.2628C29 49.2562 30.1346 52.074 32.1864 54.1892C34.2381 56.3081 36.9677 57.4741 39.875 57.4741C42.3037 57.4741 44.6092 56.6594 46.4978 55.1571L55.9119 64.8586C55.9395 64.8871 55.9723 64.9097 56.0083 64.9251C56.0444 64.9405 56.0831 64.9484 56.1221 64.9484C56.1612 64.9484 56.1999 64.9405 56.2359 64.9251C56.272 64.9097 56.3048 64.8871 56.3324 64.8586L57.9129 63.233C57.9405 63.2045 57.9624 63.1707 57.9774 63.1335C57.9923 63.0963 58 63.0565 58 63.0162C58 62.976 57.9923 62.9361 57.9774 62.8989C57.9624 62.8617 57.9405 62.8279 57.9129 62.7995ZM45.6169 52.1824C44.0799 53.7632 42.0427 54.6339 39.875 54.6339C37.7072 54.6339 35.67 53.7632 34.133 52.1824C32.5996 50.5978 31.755 48.4976 31.755 46.2628C31.755 44.028 32.5996 41.924 34.133 40.3432C35.67 38.7625 37.7072 37.8917 39.875 37.8917C42.0427 37.8917 44.0836 38.7587 45.6169 40.3432C47.1503 41.9278 47.9949 44.028 47.9949 46.2628C47.9949 48.4976 47.1503 50.6016 45.6169 52.1824Z" fill="black"/>
<path d="M106.238 60.1443H102.465L100.965 56.2419H94.0977L92.6797 60.1443H89L95.6914 42.9646H99.3594L106.238 60.1443ZM99.8516 53.3474L97.4844 46.9724L95.1641 53.3474H99.8516ZM110.598 60.1443L105.582 47.699H109.039L111.383 54.0505L112.062 56.1716C112.242 55.6326 112.355 55.2771 112.402 55.1052C112.512 54.7537 112.629 54.4021 112.754 54.0505L115.121 47.699H118.508L113.562 60.1443H110.598ZM119.773 53.7458C119.773 52.6521 120.043 51.5935 120.582 50.5701C121.121 49.5466 121.883 48.7654 122.867 48.2263C123.859 47.6873 124.965 47.4177 126.184 47.4177C128.066 47.4177 129.609 48.031 130.812 49.2576C132.016 50.4763 132.617 52.0193 132.617 53.8865C132.617 55.7693 132.008 57.3318 130.789 58.574C129.578 59.8083 128.051 60.4255 126.207 60.4255C125.066 60.4255 123.977 60.1677 122.938 59.6521C121.906 59.1365 121.121 58.3826 120.582 57.3904C120.043 56.3904 119.773 55.1755 119.773 53.7458ZM123.148 53.9216C123.148 55.156 123.441 56.1013 124.027 56.7576C124.613 57.4138 125.336 57.7419 126.195 57.7419C127.055 57.7419 127.773 57.4138 128.352 56.7576C128.938 56.1013 129.23 55.1482 129.23 53.8982C129.23 52.6794 128.938 51.7419 128.352 51.0857C127.773 50.4294 127.055 50.1013 126.195 50.1013C125.336 50.1013 124.613 50.4294 124.027 51.0857C123.441 51.7419 123.148 52.6873 123.148 53.9216ZM146.059 51.3787L142.812 51.9646C142.703 51.3162 142.453 50.8279 142.062 50.4998C141.68 50.1716 141.18 50.0076 140.562 50.0076C139.742 50.0076 139.086 50.2927 138.594 50.863C138.109 51.4255 137.867 52.3708 137.867 53.699C137.867 55.1755 138.113 56.2185 138.605 56.8279C139.105 57.4373 139.773 57.7419 140.609 57.7419C141.234 57.7419 141.746 57.5662 142.145 57.2146C142.543 56.8552 142.824 56.2419 142.988 55.3748L146.223 55.9255C145.887 57.4099 145.242 58.531 144.289 59.2888C143.336 60.0466 142.059 60.4255 140.457 60.4255C138.637 60.4255 137.184 59.8513 136.098 58.7029C135.02 57.5544 134.48 55.9646 134.48 53.9333C134.48 51.8787 135.023 50.281 136.109 49.1404C137.195 47.9919 138.664 47.4177 140.516 47.4177C142.031 47.4177 143.234 47.7458 144.125 48.4021C145.023 49.0505 145.668 50.0427 146.059 51.3787ZM151.027 51.4958L148.039 50.9568C148.375 49.7537 148.953 48.863 149.773 48.2849C150.594 47.7068 151.812 47.4177 153.43 47.4177C154.898 47.4177 155.992 47.5935 156.711 47.9451C157.43 48.2888 157.934 48.7302 158.223 49.2693C158.52 49.8005 158.668 50.781 158.668 52.2107L158.633 56.0544C158.633 57.1482 158.684 57.9568 158.785 58.4802C158.895 58.9958 159.094 59.5505 159.383 60.1443H156.125C156.039 59.9255 155.934 59.6013 155.809 59.1716C155.754 58.9763 155.715 58.8474 155.691 58.7849C155.129 59.3318 154.527 59.7419 153.887 60.0154C153.246 60.2888 152.562 60.4255 151.836 60.4255C150.555 60.4255 149.543 60.0779 148.801 59.3826C148.066 58.6873 147.699 57.8083 147.699 56.7458C147.699 56.0427 147.867 55.4177 148.203 54.8708C148.539 54.3162 149.008 53.8943 149.609 53.6052C150.219 53.3083 151.094 53.0505 152.234 52.8318C153.773 52.5427 154.84 52.2732 155.434 52.0232V51.6951C155.434 51.0623 155.277 50.613 154.965 50.3474C154.652 50.074 154.062 49.9373 153.195 49.9373C152.609 49.9373 152.152 50.0544 151.824 50.2888C151.496 50.5154 151.23 50.9177 151.027 51.4958ZM155.434 54.1677C155.012 54.3083 154.344 54.4763 153.43 54.6716C152.516 54.8669 151.918 55.0583 151.637 55.2458C151.207 55.5505 150.992 55.9373 150.992 56.406C150.992 56.8669 151.164 57.2654 151.508 57.6013C151.852 57.9373 152.289 58.1052 152.82 58.1052C153.414 58.1052 153.98 57.9099 154.52 57.5193C154.918 57.2224 155.18 56.8591 155.305 56.4294C155.391 56.1482 155.434 55.613 155.434 54.824V54.1677ZM173.34 60.1443H170.281V58.3162C169.773 59.0271 169.172 59.5583 168.477 59.9099C167.789 60.2537 167.094 60.4255 166.391 60.4255C164.961 60.4255 163.734 59.8513 162.711 58.7029C161.695 57.5466 161.188 55.9373 161.188 53.8748C161.188 51.7654 161.684 50.1638 162.676 49.0701C163.668 47.9685 164.922 47.4177 166.438 47.4177C167.828 47.4177 169.031 47.9958 170.047 49.1521V42.9646H173.34V60.1443ZM164.551 53.6521C164.551 54.9802 164.734 55.9412 165.102 56.5349C165.633 57.3943 166.375 57.824 167.328 57.824C168.086 57.824 168.73 57.5037 169.262 56.863C169.793 56.2146 170.059 55.2498 170.059 53.9685C170.059 52.5388 169.801 51.5115 169.285 50.8865C168.77 50.2537 168.109 49.9373 167.305 49.9373C166.523 49.9373 165.867 50.2498 165.336 50.8748C164.812 51.4919 164.551 52.4177 164.551 53.6521ZM175.836 53.7458C175.836 52.6521 176.105 51.5935 176.645 50.5701C177.184 49.5466 177.945 48.7654 178.93 48.2263C179.922 47.6873 181.027 47.4177 182.246 47.4177C184.129 47.4177 185.672 48.031 186.875 49.2576C188.078 50.4763 188.68 52.0193 188.68 53.8865C188.68 55.7693 188.07 57.3318 186.852 58.574C185.641 59.8083 184.113 60.4255 182.27 60.4255C181.129 60.4255 180.039 60.1677 179 59.6521C177.969 59.1365 177.184 58.3826 176.645 57.3904C176.105 56.3904 175.836 55.1755 175.836 53.7458ZM179.211 53.9216C179.211 55.156 179.504 56.1013 180.09 56.7576C180.676 57.4138 181.398 57.7419 182.258 57.7419C183.117 57.7419 183.836 57.4138 184.414 56.7576C185 56.1013 185.293 55.1482 185.293 53.8982C185.293 52.6794 185 51.7419 184.414 51.0857C183.836 50.4294 183.117 50.1013 182.258 50.1013C181.398 50.1013 180.676 50.4294 180.09 51.0857C179.504 51.7419 179.211 52.6873 179.211 53.9216ZM190.109 56.5935L193.414 56.0896C193.555 56.7302 193.84 57.2185 194.27 57.5544C194.699 57.8826 195.301 58.0466 196.074 58.0466C196.926 58.0466 197.566 57.8904 197.996 57.5779C198.285 57.3591 198.43 57.0662 198.43 56.699C198.43 56.449 198.352 56.2419 198.195 56.0779C198.031 55.9216 197.664 55.7771 197.094 55.6443C194.438 55.0583 192.754 54.5232 192.043 54.0388C191.059 53.3669 190.566 52.4333 190.566 51.238C190.566 50.1599 190.992 49.2537 191.844 48.5193C192.695 47.7849 194.016 47.4177 195.805 47.4177C197.508 47.4177 198.773 47.6951 199.602 48.2498C200.43 48.8044 201 49.6248 201.312 50.7107L198.207 51.2849C198.074 50.8005 197.82 50.4294 197.445 50.1716C197.078 49.9138 196.551 49.7849 195.863 49.7849C194.996 49.7849 194.375 49.906 194 50.1482C193.75 50.3201 193.625 50.5427 193.625 50.8162C193.625 51.0505 193.734 51.2498 193.953 51.4138C194.25 51.6326 195.273 51.9412 197.023 52.3396C198.781 52.738 200.008 53.2263 200.703 53.8044C201.391 54.3904 201.734 55.2068 201.734 56.2537C201.734 57.3943 201.258 58.3748 200.305 59.1951C199.352 60.0154 197.941 60.4255 196.074 60.4255C194.379 60.4255 193.035 60.0818 192.043 59.3943C191.059 58.7068 190.414 57.7732 190.109 56.5935Z" fill="black"/>
<defs>
<filter id="filter0_d_32_256" x="0" y="0" width="455" height="108" filterUnits="userSpaceOnUse" color-interpolation-filters="sRGB">
<feFlood flood-opacity="0" result="BackgroundImageFix"/>
<feColorMatrix in="SourceAlpha" type="matrix" values="0 0 0 0 0 0 0 0 0 0 0 0 0 0 0 0 0 0 127 0" result="hardAlpha"/>
<feOffset dy="4"/>
<feGaussianBlur stdDeviation="2"/>
<feComposite in2="hardAlpha" operator="out"/>
<feColorMatrix type="matrix" values="0 0 0 0 0 0 0 0 0 0 0 0 0 0 0 0 0 0 0.25 0"/>
<feBlend mode="normal" in2="BackgroundImageFix" result="effect1_dropShadow_32_256"/>
<feBlend mode="normal" in="SourceGraphic" in2="effect1_dropShadow_32_256" result="shape"/>
</filter>
</defs>
</svg>
