<svg width="329" height="720" viewBox="0 0 329 720" fill="none" xmlns="http://www.w3.org/2000/svg">
<path d="M41.3047 675L39.0871 677.02L39.0992 677.034L39.1115 677.047L41.3047 675ZM0.304688 489V486H-2.69531V489H0.304688ZM104.305 489H107.305V486H104.305V489ZM203.305 603L201 601.079L200.994 601.086L200.989 601.093L203.305 603ZM201.305 416L198.973 417.888L198.996 417.916L199.019 417.943L201.305 416ZM109.305 395H106.305V398H109.305V395ZM109.305 295V292H106.305V295H109.305ZM198.305 278L196.183 275.879L196.151 275.911L196.12 275.944L198.305 278ZM200.305 117L202.554 115.015L200.305 117ZM107.305 211V214H110.305V211H107.305ZM3.30469 211H0.304691V214H3.30469V211ZM44.3047 45L42.1115 42.953L42.0992 42.9662L42.0871 42.9795L44.3047 45ZM284.305 45L282.087 47.0204L282.098 47.0329L282.11 47.0452L284.305 45ZM306.305 290L308.924 291.463L308.932 291.447L308.941 291.431L306.305 290ZM247.305 339L246.251 336.191L244.305 336.921V339H247.305ZM247.305 341H244.305V343.085L246.258 343.812L247.305 341ZM309.305 393L306.652 394.4L309.305 393ZM286.305 676L284.112 673.953L284.11 673.955L286.305 676ZM164.305 717C110.861 717 70.7664 702.169 43.4979 672.953L39.1115 677.047C67.843 707.831 109.749 723 164.305 723V717ZM43.5223 672.98C16.8563 643.712 3.30469 601.538 3.30469 546H-2.69531C-2.69531 602.462 11.0864 646.288 39.0871 677.02L43.5223 672.98ZM3.30469 546V489H-2.69531V546H3.30469ZM0.304688 492H104.305V486H0.304688V492ZM101.305 489V551H107.305V489H101.305ZM101.305 551C101.305 574.338 106.113 592.399 116.242 604.661C126.462 617.032 141.675 623 161.305 623V617C142.934 617 129.648 611.468 120.868 600.839C111.997 590.101 107.305 573.662 107.305 551H101.305ZM161.305 623C180.604 623 195.568 617.113 205.62 604.907L200.989 601.093C192.374 611.553 179.339 617 161.305 617V623ZM205.609 604.921C216.312 592.077 221.305 570.497 221.305 541H215.305C215.305 570.169 210.297 589.923 201 601.079L205.609 604.921ZM221.305 541V484H215.305V541H221.305ZM221.305 484C221.305 451.811 215.637 428.23 203.591 414.057L199.019 417.943C209.639 430.437 215.305 452.189 215.305 484H221.305ZM203.636 414.112C191.528 399.155 172.157 392 146.305 392V398C171.119 398 188.414 404.845 198.973 417.888L203.636 414.112ZM146.305 392H109.305V398H146.305V392ZM112.305 395V295H106.305V395H112.305ZM109.305 298H149.305V292H109.305V298ZM149.305 298C171.783 298 189.054 292.206 200.489 280.056L196.12 275.944C186.222 286.461 170.827 292 149.305 292V298ZM200.426 280.121C212.597 267.95 218.305 247.963 218.305 221H212.305C212.305 247.371 206.679 265.383 196.183 275.879L200.426 280.121ZM218.305 221V170H212.305V221H218.305ZM218.305 170C218.305 145.676 213.253 127.14 202.554 115.015L198.055 118.985C207.357 129.527 212.305 146.323 212.305 170H218.305ZM202.554 115.015C191.922 102.966 177.733 97 160.305 97V103C176.21 103 188.687 108.368 198.055 118.985L202.554 115.015ZM160.305 97C141.995 97 127.778 102.643 118.23 114.354C108.776 125.948 104.305 143.003 104.305 165H110.305C110.305 143.664 114.666 128.219 122.88 118.146C130.998 108.19 143.281 103 160.305 103V97ZM104.305 165V211H110.305V165H104.305ZM107.305 208H3.30469V214H107.305V208ZM6.30469 211V174H0.304691V211H6.30469ZM6.30469 174C6.30469 118.462 19.8563 76.288 46.5223 47.0204L42.0871 42.9795C14.0864 73.712 0.304691 117.538 0.304691 174H6.30469ZM46.4979 47.0469C73.7873 17.8083 112.9 2.99997 164.305 2.99997V-3.00003C111.709 -3.00003 70.8221 12.1917 42.1115 42.953L46.4979 47.0469ZM164.305 2.99997C216.393 2.99997 255.48 17.8171 282.087 47.0204L286.522 42.9795C258.463 12.1828 217.549 -3.00003 164.305 -3.00003V2.99997ZM282.11 47.0452C308.751 75.6356 322.305 117.456 322.305 173H328.305C328.305 116.544 314.525 73.031 286.5 42.9548L282.11 47.0452ZM322.305 173V198H328.305V173H322.305ZM322.305 198C322.305 235.702 316.016 265.823 303.668 288.569L308.941 291.431C321.927 267.51 328.305 236.298 328.305 198H322.305ZM303.686 288.537C291.4 310.522 272.322 326.414 246.251 336.191L248.358 341.809C275.62 331.586 295.876 314.811 308.924 291.463L303.686 288.537ZM244.305 339V341H250.305V339H244.305ZM246.258 343.812C274.328 354.256 294.373 371.136 306.652 394.4L311.958 391.6C298.903 366.864 277.614 349.077 248.351 338.188L246.258 343.812ZM306.652 394.4C319.021 417.837 325.305 447.981 325.305 485H331.305C331.305 447.353 324.922 416.163 311.958 391.6L306.652 394.4ZM325.305 485V547H331.305V485H325.305ZM325.305 547C325.305 602.521 311.429 644.685 284.112 673.953L288.498 678.047C317.181 647.315 331.305 603.479 331.305 547H325.305ZM284.11 673.955C257.521 702.49 217.773 717 164.305 717V723C218.837 723 260.422 708.177 288.5 678.045L284.11 673.955Z" fill="#308A7B" fill-opacity="0.2"/>
</svg>
