<svg width="567" height="746" viewBox="0 0 567 746" fill="none" xmlns="http://www.w3.org/2000/svg">
<path d="M384.785 32.731C376.487 36.4811 367.042 32.6758 363.661 24.2202C360.28 15.7647 364.257 5.894 372.556 2.14391C380.854 -1.60617 390.299 2.19914 393.68 10.6547C397.06 19.1103 393.083 28.9809 384.785 32.731ZM430.25 102.122C426.869 93.6664 417.425 89.861 409.126 93.6111C400.828 97.3612 396.851 107.232 400.232 115.687C403.612 124.143 413.057 127.948 421.356 124.198C429.654 120.448 433.631 110.577 430.25 102.122ZM466.821 193.589C463.44 185.134 453.995 181.328 445.697 185.078C437.399 188.828 433.422 198.699 436.802 207.155C440.183 215.61 449.628 219.416 457.926 215.665C466.225 211.915 470.202 202.045 466.821 193.589ZM503.391 285.056C500.011 276.601 490.566 272.795 482.268 276.546C473.969 280.296 469.992 290.166 473.373 298.622C476.754 307.077 486.199 310.883 494.497 307.133C502.795 303.383 506.772 293.512 503.391 285.056ZM539.962 376.524C536.581 368.068 527.137 364.263 518.838 368.013C510.54 371.763 506.563 381.634 509.944 390.089C513.324 398.545 522.769 402.35 531.068 398.6C539.315 394.829 543.292 384.959 539.962 376.524ZM303.913 51.2208C300.532 42.7653 291.087 38.9599 282.789 42.71C274.491 46.4601 270.514 56.3307 273.894 64.7863C277.275 73.2419 286.72 77.0472 295.018 73.2971C303.317 69.547 307.294 59.6764 303.913 51.2208ZM340.484 142.688C337.103 134.232 327.658 130.427 319.36 134.177C311.061 137.927 307.084 147.798 310.465 156.254C313.846 164.709 323.291 168.514 331.589 164.764C339.887 161.014 343.864 151.144 340.484 142.688ZM377.054 234.155C373.673 225.7 364.229 221.894 355.93 225.644C347.632 229.394 343.655 239.265 347.036 247.721C350.416 256.176 359.861 259.982 368.16 256.232C376.458 252.481 380.435 242.611 377.054 234.155ZM413.625 325.622C410.244 317.167 400.799 313.362 392.501 317.112C384.203 320.862 380.226 330.732 383.606 339.188C386.987 347.644 396.432 351.449 404.73 347.699C413.029 343.949 417.006 334.078 413.625 325.622ZM450.195 417.09C446.815 408.634 437.37 404.829 429.072 408.579C420.773 412.329 416.796 422.2 420.177 430.655C423.558 439.111 433.003 442.916 441.301 439.166C449.599 435.416 453.576 425.545 450.195 417.09ZM214.146 91.7869C210.765 83.3313 201.321 79.526 193.022 83.2761C184.724 87.0261 180.747 96.8968 184.128 105.352C187.508 113.808 196.953 117.613 205.252 113.863C213.55 110.113 217.527 100.242 214.146 91.7869ZM250.717 183.254C247.336 174.799 237.891 170.993 229.593 174.743C221.295 178.493 217.318 188.364 220.698 196.82C224.079 205.275 233.524 209.081 241.822 205.33C250.121 201.58 254.098 191.71 250.717 183.254ZM287.287 274.721C283.907 266.266 274.462 262.46 266.164 266.211C257.865 269.961 253.888 279.831 257.269 288.287C260.65 296.742 270.095 300.548 278.393 296.798C286.691 293.048 290.668 283.177 287.287 274.721ZM323.858 366.189C320.477 357.733 311.033 353.928 302.734 357.678C294.436 361.428 290.459 371.299 293.84 379.754C297.22 388.21 306.665 392.015 314.964 388.265C323.262 384.515 327.239 374.644 323.858 366.189ZM360.429 457.656C357.048 449.2 347.603 445.395 339.305 449.145C331.007 452.895 327.03 462.766 330.41 471.221C333.791 479.677 343.236 483.482 351.534 479.732C359.833 475.982 363.831 466.058 360.429 457.656ZM124.379 132.353C120.999 123.897 111.554 120.092 103.256 123.842C94.9572 127.592 90.9804 137.463 94.3611 145.919C97.7418 154.374 107.187 158.179 115.485 154.429C123.783 150.679 127.76 140.809 124.379 132.353ZM160.95 223.82C157.569 215.365 148.125 211.559 139.826 215.309C131.528 219.059 127.551 228.93 130.932 237.386C134.312 245.841 143.757 249.647 152.056 245.897C160.354 242.146 164.331 232.276 160.95 223.82ZM197.521 315.287C194.14 306.832 184.695 303.027 176.397 306.777C168.098 310.527 164.122 320.397 167.502 328.853C170.883 337.309 180.328 341.114 188.626 337.364C196.925 333.614 200.902 323.743 197.521 315.287ZM234.091 406.755C230.711 398.299 221.266 394.494 212.968 398.244C204.669 401.994 200.692 411.865 204.073 420.32C207.454 428.776 216.899 432.581 225.197 428.831C233.495 425.081 237.494 415.157 234.091 406.755ZM270.662 498.222C267.281 489.766 257.837 485.961 249.538 489.711C241.24 493.461 237.263 503.332 240.644 511.787C244.024 520.243 253.469 524.048 261.768 520.298C270.066 516.548 274.064 506.624 270.662 498.222ZM34.6128 172.919C31.2321 164.464 21.7873 160.658 13.4889 164.408C5.19054 168.158 1.21366 178.029 4.59439 186.485C7.97511 194.94 17.4199 198.745 25.7183 194.995C34.0167 191.245 37.9935 181.375 34.6128 172.919ZM71.1835 264.386C67.8027 255.931 58.3579 252.125 50.0596 255.876C41.7612 259.626 37.7843 269.496 41.165 277.952C44.5458 286.407 53.9906 290.213 62.2889 286.463C70.5873 282.713 74.5642 272.842 71.1835 264.386ZM107.754 355.854C104.373 347.398 94.9286 343.593 86.6302 347.343C78.3318 351.093 74.355 360.963 77.7357 369.419C81.1164 377.875 90.5613 381.68 98.8596 377.93C107.158 374.18 111.156 364.256 107.754 355.854ZM144.325 447.321C140.944 438.865 131.499 435.06 123.201 438.81C114.902 442.56 110.926 452.431 114.306 460.886C117.687 469.342 127.132 473.147 135.43 469.397C143.729 465.647 147.727 455.723 144.325 447.321ZM180.917 538.735C177.536 530.279 168.091 526.474 159.793 530.224C151.495 533.974 147.518 543.845 150.898 552.3C154.279 560.756 163.724 564.561 172.022 560.811C180.299 557.114 184.298 547.19 180.917 538.735Z" fill="#ACD0CA" fill-opacity="0.4"/>
<g filter="url(#filter0_d_0_1)">
<path d="M206.663 124.943H473.174C482.96 124.943 490.894 132.877 490.894 142.665V652.082C490.894 661.868 482.96 669.803 473.175 669.803H206.663C196.877 669.803 188.943 661.868 188.943 652.082V142.664C188.943 132.877 196.877 124.943 206.663 124.943Z" fill="#308A7B" stroke="black" stroke-width="4"/>
</g>
<path d="M199.716 183.16H480.119V611.585H199.716V183.16Z" fill="white"/>
<path d="M295.909 155.763C295.909 153.649 297.623 151.935 299.737 151.935H380.1C382.215 151.935 383.929 153.649 383.929 155.763C383.929 157.877 382.215 159.591 380.1 159.591H299.737C297.623 159.591 295.909 157.877 295.909 155.763Z" fill="black"/>
<path d="M339.918 656.401C330.58 656.401 323.01 648.831 323.01 639.493C323.01 630.154 330.58 622.585 339.918 622.585C349.256 622.585 356.826 630.154 356.826 639.493C356.826 648.831 349.256 656.401 339.918 656.401Z" fill="black"/>
<path d="M480.12 587.299H199.717V287.701H480.12V587.299Z" fill="#B8D4FF"/>
<path d="M402.535 232.561H271.613V221.999H402.535V232.561Z" fill="black"/>
<path d="M351.338 248.647H271.614V240.995H351.338V248.647Z" fill="black"/>
<path d="M258.267 233.424C258.267 245.525 248.456 255.335 236.356 255.335C224.254 255.335 214.445 245.525 214.445 233.424C214.445 221.323 224.254 211.513 236.356 211.513C248.456 211.513 258.267 221.323 258.267 233.424Z" fill="black"/>
<path d="M442.165 226.62C442.165 228.574 440.581 230.157 438.627 230.157C436.674 230.157 435.09 228.574 435.09 226.62C435.09 224.666 436.674 223.083 438.627 223.083C440.581 223.083 442.165 224.666 442.165 226.62ZM450.241 223.083C448.288 223.083 446.704 224.666 446.704 226.62C446.704 228.574 448.288 230.157 450.241 230.157C452.195 230.157 453.778 228.574 453.778 226.62C453.778 224.666 452.195 223.083 450.241 223.083ZM461.854 223.083C459.901 223.083 458.317 224.666 458.317 226.62C458.317 228.574 459.901 230.157 461.854 230.157C463.808 230.157 465.392 228.574 465.392 226.62C465.392 224.666 463.808 223.083 461.854 223.083Z" fill="black"/>
<path d="M257.55 475.761H238.044V446.322H257.55V475.761Z" fill="#FF5F66"/>
<path d="M301.505 428.855H281.999V475.761H301.505V428.855Z" fill="#16D18B"/>
<path d="M345.461 439.451H325.954V475.761H345.461V439.451Z" fill="#FF5F66"/>
<path d="M389.416 429.67H369.91V475.761H389.416V429.67Z" fill="#16D18B"/>
<path d="M435.688 420.462H416.182V475.762H435.688V420.462Z" fill="#FF5F66"/>
<path d="M449.173 491.595H221.137V305.703H223.799V488.933H449.173V491.595Z" fill="white"/>
<path d="M237.015 529.331H220.645V512.961H237.015V529.331Z" fill="#16D18B"/>
<path d="M237.015 558.013H220.645V541.643H237.015V558.013Z" fill="#FF5F66"/>
<path d="M326.406 558.013H241.526V548.71H326.406V558.013Z" fill="#9CC8FF"/>
<path d="M326.406 529.33H241.526V520.027H326.406V529.33Z" fill="#9CC8FF"/>
<path d="M359.203 529.331H342.833V512.961H359.203V529.331Z" fill="#16D18B"/>
<path d="M359.203 558.013H342.833V541.643H359.203V558.013Z" fill="#FF5F66"/>
<path d="M448.594 558.013H363.712V548.71H448.594V558.013Z" fill="#9CC8FF"/>
<path d="M448.594 529.33H363.712V520.027H448.594V529.33Z" fill="#9CC8FF"/>
<path d="M334.549 359.935L331.448 351.689L339.799 353.254L334.549 359.935Z" fill="white"/>
<path d="M247.537 389.456L269.569 373.411L290.813 383.13L312.451 364.042L334.877 354.784" stroke="black" stroke-width="0.519352" stroke-linecap="round" stroke-linejoin="round"/>
<path d="M475.057 263.164C475.057 267.872 471.24 271.69 466.531 271.69C461.823 271.69 458.005 267.872 458.005 263.164C458.005 258.456 461.823 254.638 466.531 254.638C471.24 254.638 475.057 258.456 475.057 263.164Z" stroke="black" stroke-width="0.906" stroke-miterlimit="10"/>
<path d="M236.356 737.237C236.356 742.029 205.925 745.913 168.388 745.913C130.851 745.913 100.42 742.029 100.42 737.237C100.42 732.446 130.851 728.561 168.388 728.561C205.925 728.561 236.356 732.446 236.356 737.237Z" fill="#D1D2D3"/>
<path d="M173.204 706.073C173.204 706.073 175.169 715.024 175.023 722.156C174.117 727.105 175.031 728.56 175.031 728.56L193.8 726.96C193.8 726.96 185.503 722.885 186.085 703.526C186.668 684.168 173.204 706.073 173.204 706.073Z" fill="#FFCC99"/>
<path d="M174.124 723.665C174.124 723.665 182.471 726.125 190.359 723.296C200.119 727.014 206.901 728.278 215.579 728.775C224.258 729.273 223.22 736.456 208.45 736.487C193.68 736.516 183.469 737.897 180.225 738.449C176.98 738.998 171.783 739.795 171.407 737.522C171.033 735.25 171.416 723.091 174.124 723.665Z" fill="#9D9D9D"/>
<path d="M115.593 706.073C115.593 706.073 117.558 715.024 117.412 722.156C116.506 727.105 117.42 728.56 117.42 728.56L136.189 726.96C136.189 726.96 127.892 722.885 128.474 703.526C129.057 684.168 115.593 706.073 115.593 706.073Z" fill="#FFCC99"/>
<path d="M117.178 723.656C117.178 723.656 125.338 726.682 133.401 724.401C142.884 728.779 149.562 730.505 158.187 731.596C166.81 732.688 165.282 739.783 150.545 738.801C135.808 737.818 125.526 738.495 122.252 738.823C118.977 739.149 113.737 739.587 113.519 737.294C113.3 735.002 114.517 722.897 117.178 723.656Z" fill="#9D9D9D"/>
<path d="M180.479 436.07C180.479 436.07 192.559 562.598 193.275 579.071C193.992 595.544 193.992 601.273 193.275 611.3C192.559 621.327 198.738 705.807 198.738 705.807C198.738 705.807 170.627 713.146 163.466 706.621C163.466 706.621 164.634 614.509 161.053 598.753C157.472 582.997 143.469 503.153 143.469 503.153L159.614 421.506L180.479 436.07Z" fill="#16168F"/>
<path d="M115.231 260.03C115.231 260.03 116.388 238.007 125.46 232.088C134.532 226.17 158.818 223.994 166.291 234.192C173.763 244.39 181.781 288.7 145.348 294.448L126.551 381.627C126.551 381.627 77.3948 376.654 73.6073 350.336C69.8197 324.019 92.1868 311.752 92.1868 311.752C92.1868 311.752 81.4207 289.644 92.6843 274.037C103.949 258.432 115.231 260.03 115.231 260.03Z" fill="black"/>
<path d="M184.742 336.002C184.742 336.002 227.532 349.578 239.482 350.988C248.679 353.097 271.257 300.124 273.162 296.971C281.41 293.154 284.976 289.73 285.5 285.909C286.024 282.089 277.097 277.302 275.871 279.061C278.278 274.27 278.887 272.748 279.6 271.086C281.076 267.646 279.005 264.494 273.13 277.422C267.332 290.182 268.043 288.037 266.391 292.592C258.515 303.802 238.695 329.722 236.954 333.855C217.481 330.1 185.691 316.31 185.691 316.31L184.742 336.002Z" fill="#FFCC99"/>
<path d="M119.507 588.382C122.372 564.747 117.126 468.952 117.337 448.664C117.548 428.375 174.655 438.695 174.655 438.695C174.655 438.695 156.75 557.585 154.601 574.774C152.453 591.963 149.588 596.977 148.514 613.449C147.44 629.922 139.561 707.273 139.561 707.273C139.561 707.273 108.13 712.549 105.756 706.604C100.789 676.169 119.507 588.382 119.507 588.382Z" fill="#16168F"/>
<path d="M163.196 304.764L188.979 311.698C188.979 311.698 186.115 333.412 188.979 339.858H171.074C171.074 339.858 167.967 349.169 166.298 353.466C164.629 357.764 179.669 429.988 181.817 443.597C181.817 443.597 143.858 436.546 113.778 450.154C113.778 450.154 116.642 421.506 126.67 401.452C136.696 381.398 96.515 334.665 96.515 334.665C96.515 334.665 108.78 297.065 130.251 294.737C147.398 292.878 147.296 300.488 163.196 304.764Z" fill="white"/>
<path d="M161.763 241.887C161.763 241.887 169.642 263.224 164.628 273.251C159.615 283.279 147.439 281.846 147.439 281.846V304.764C147.439 304.764 146.197 305.954 144.037 306.077C140.277 306.291 130.25 299.751 130.25 299.751V246.752L161.763 241.887Z" fill="#FFCC99"/>
<path d="M89.405 333.273C89.405 333.273 51.289 376.565 53.438 381.936C55.586 387.308 98.021 410.942 101.781 414.166C105.542 417.388 117.1 430.294 117.498 428.576C117.896 426.857 124.879 422.759 125.416 418.462C125.953 414.166 122.193 410.405 122.193 410.405L106.079 408.256C106.079 408.256 77.072 384.085 75.998 380.862C74.924 377.639 108.78 344.335 108.78 344.335L89.405 333.273Z" fill="#FFCC99"/>
<path d="M85.888 331.264C85.888 331.264 107.994 300.08 121.698 301.183C135.402 302.285 134.59 322.3 121.698 336.277C108.806 350.254 104.509 355.615 104.509 355.615C104.509 355.615 88.753 347.737 85.888 331.264Z" fill="white"/>
<path d="M162.766 238.757C162.766 238.757 157.645 263.224 145.827 269.671C134.01 276.116 142.937 291.963 131.673 303.796C125.645 310.127 114.194 303.088 114.194 303.088L125.468 241.887L162.766 238.757Z" fill="black"/>
<path d="M155.974 188.991C155.975 186.746 155.393 184.538 154.286 182.584C153.179 180.63 151.583 178.997 149.656 177.843C147.729 176.69 145.536 176.056 143.291 176.004C141.046 175.951 138.825 176.482 136.846 177.544C134.867 178.606 133.198 180.162 132 182.062C130.803 183.962 130.118 186.141 130.014 188.384C129.91 190.627 130.389 192.859 131.405 194.862C132.421 196.865 133.939 198.57 135.811 199.811V211.429C135.811 211.798 135.958 212.152 136.218 212.413C136.479 212.674 136.833 212.82 137.202 212.82H148.772C149.141 212.82 149.495 212.674 149.756 212.413C150.016 212.152 150.163 211.798 150.163 211.429V199.812C151.95 198.629 153.417 197.022 154.431 195.133C155.445 193.245 155.975 191.135 155.974 188.991Z" fill="#FFE240" stroke="black" stroke-linecap="round" stroke-linejoin="round"/>
<path d="M135.811 205.969C135.811 206.338 135.958 206.692 136.218 206.953C136.479 207.214 136.833 207.36 137.202 207.36H148.772C149.141 207.36 149.495 207.214 149.756 206.953C150.016 206.692 150.163 206.338 150.163 205.969M136.981 195.192H148.993M142.987 207.36V195.192M139.243 212.82V213.613C139.243 213.982 139.39 214.336 139.65 214.597C139.911 214.858 140.265 215.004 140.634 215.004H145.34C145.709 215.004 146.063 214.858 146.324 214.597C146.584 214.336 146.731 213.982 146.731 213.613V212.82" stroke="black" stroke-linecap="round" stroke-linejoin="round"/>
<g filter="url(#filter1_d_0_1)">
<path fill-rule="evenodd" clip-rule="evenodd" d="M195.768 80C183.193 80 173 90.1935 173 102.768C173 115.342 183.193 125.535 195.768 125.535H199.609V142.182L230.796 125.535H354.232C366.807 125.535 377 115.342 377 102.768C377 90.1935 366.807 80 354.232 80H195.768Z" fill="#EEEEEE"/>
</g>
<path d="M192 102.5L199.875 110.5L213 94.5" stroke="#308A7B" stroke-width="5" stroke-linecap="round" stroke-linejoin="round"/>
<path d="M222.31 109V96.1152H226.484C228.066 96.1152 229.098 96.1797 229.578 96.3086C230.316 96.502 230.935 96.9238 231.433 97.5742C231.931 98.2188 232.18 99.0537 232.18 100.079C232.18 100.87 232.036 101.535 231.749 102.074C231.462 102.613 231.096 103.038 230.65 103.349C230.211 103.653 229.763 103.855 229.306 103.955C228.685 104.078 227.785 104.14 226.607 104.14H224.911V109H222.31ZM224.911 98.2949V101.951H226.335C227.36 101.951 228.046 101.884 228.392 101.749C228.737 101.614 229.007 101.403 229.2 101.116C229.399 100.829 229.499 100.495 229.499 100.114C229.499 99.6455 229.361 99.2588 229.086 98.9541C228.811 98.6494 228.462 98.459 228.04 98.3828C227.729 98.3242 227.105 98.2949 226.168 98.2949H224.911ZM236.662 109H234.192V99.666H236.486V100.993C236.879 100.366 237.23 99.9531 237.541 99.7539C237.857 99.5547 238.215 99.4551 238.613 99.4551C239.176 99.4551 239.718 99.6104 240.239 99.9209L239.475 102.074C239.059 101.805 238.672 101.67 238.314 101.67C237.969 101.67 237.676 101.767 237.436 101.96C237.195 102.147 237.005 102.49 236.864 102.988C236.729 103.486 236.662 104.529 236.662 106.117V109ZM240.74 104.201C240.74 103.381 240.942 102.587 241.347 101.819C241.751 101.052 242.322 100.466 243.061 100.062C243.805 99.6572 244.634 99.4551 245.548 99.4551C246.96 99.4551 248.117 99.915 249.02 100.835C249.922 101.749 250.373 102.906 250.373 104.307C250.373 105.719 249.916 106.891 249.002 107.822C248.094 108.748 246.948 109.211 245.565 109.211C244.71 109.211 243.893 109.018 243.113 108.631C242.34 108.244 241.751 107.679 241.347 106.935C240.942 106.185 240.74 105.273 240.74 104.201ZM243.271 104.333C243.271 105.259 243.491 105.968 243.931 106.46C244.37 106.952 244.912 107.198 245.557 107.198C246.201 107.198 246.74 106.952 247.174 106.46C247.613 105.968 247.833 105.253 247.833 104.315C247.833 103.401 247.613 102.698 247.174 102.206C246.74 101.714 246.201 101.468 245.557 101.468C244.912 101.468 244.37 101.714 243.931 102.206C243.491 102.698 243.271 103.407 243.271 104.333ZM256.596 99.666V101.635H254.908V105.396C254.908 106.158 254.923 106.604 254.952 106.732C254.987 106.855 255.061 106.958 255.172 107.04C255.289 107.122 255.43 107.163 255.594 107.163C255.822 107.163 256.153 107.084 256.587 106.926L256.798 108.842C256.224 109.088 255.573 109.211 254.847 109.211C254.401 109.211 254 109.138 253.643 108.991C253.285 108.839 253.021 108.646 252.852 108.411C252.688 108.171 252.573 107.849 252.509 107.444C252.456 107.157 252.43 106.577 252.43 105.704V101.635H251.296V99.666H252.43V97.8115L254.908 96.3701V99.666H256.596ZM263.715 106.029L266.176 106.442C265.859 107.345 265.358 108.033 264.673 108.508C263.993 108.977 263.141 109.211 262.115 109.211C260.492 109.211 259.291 108.681 258.512 107.62C257.896 106.771 257.589 105.698 257.589 104.403C257.589 102.856 257.993 101.646 258.802 100.773C259.61 99.8945 260.633 99.4551 261.869 99.4551C263.258 99.4551 264.354 99.915 265.156 100.835C265.959 101.749 266.343 103.152 266.308 105.045H260.12C260.138 105.777 260.337 106.349 260.718 106.759C261.099 107.163 261.573 107.365 262.142 107.365C262.528 107.365 262.854 107.26 263.117 107.049C263.381 106.838 263.58 106.498 263.715 106.029ZM263.855 103.533C263.838 102.818 263.653 102.276 263.302 101.907C262.95 101.532 262.522 101.345 262.019 101.345C261.479 101.345 261.034 101.541 260.683 101.934C260.331 102.326 260.158 102.859 260.164 103.533H263.855ZM268.329 98.4004V96.1152H270.799V98.4004H268.329ZM268.329 109V99.666H270.799V109H268.329ZM281.829 109H279.359V104.236C279.359 103.229 279.307 102.578 279.201 102.285C279.096 101.986 278.923 101.755 278.683 101.591C278.448 101.427 278.164 101.345 277.83 101.345C277.402 101.345 277.019 101.462 276.679 101.696C276.339 101.931 276.104 102.241 275.976 102.628C275.853 103.015 275.791 103.729 275.791 104.772V109H273.321V99.666H275.615V101.037C276.43 99.9824 277.455 99.4551 278.691 99.4551C279.236 99.4551 279.734 99.5547 280.186 99.7539C280.637 99.9473 280.977 100.196 281.205 100.501C281.439 100.806 281.601 101.151 281.688 101.538C281.782 101.925 281.829 102.479 281.829 103.199V109ZM291.717 109H289.247V99.666H291.541V100.993C291.934 100.366 292.285 99.9531 292.596 99.7539C292.912 99.5547 293.27 99.4551 293.668 99.4551C294.23 99.4551 294.772 99.6104 295.294 99.9209L294.529 102.074C294.113 101.805 293.727 101.67 293.369 101.67C293.023 101.67 292.73 101.767 292.49 101.96C292.25 102.147 292.06 102.49 291.919 102.988C291.784 103.486 291.717 104.529 291.717 106.117V109ZM301.771 106.029L304.232 106.442C303.916 107.345 303.415 108.033 302.729 108.508C302.05 108.977 301.197 109.211 300.172 109.211C298.549 109.211 297.348 108.681 296.568 107.62C295.953 106.771 295.646 105.698 295.646 104.403C295.646 102.856 296.05 101.646 296.858 100.773C297.667 99.8945 298.689 99.4551 299.926 99.4551C301.314 99.4551 302.41 99.915 303.213 100.835C304.016 101.749 304.399 103.152 304.364 105.045H298.177C298.194 105.777 298.394 106.349 298.774 106.759C299.155 107.163 299.63 107.365 300.198 107.365C300.585 107.365 300.91 107.26 301.174 107.049C301.438 106.838 301.637 106.498 301.771 106.029ZM301.912 103.533C301.895 102.818 301.71 102.276 301.358 101.907C301.007 101.532 300.579 101.345 300.075 101.345C299.536 101.345 299.091 101.541 298.739 101.934C298.388 102.326 298.215 102.859 298.221 103.533H301.912ZM308.231 102.514L305.99 102.109C306.242 101.207 306.676 100.539 307.291 100.105C307.906 99.6719 308.82 99.4551 310.033 99.4551C311.135 99.4551 311.955 99.5869 312.494 99.8506C313.033 100.108 313.411 100.439 313.628 100.844C313.851 101.242 313.962 101.978 313.962 103.05L313.936 105.933C313.936 106.753 313.974 107.359 314.05 107.752C314.132 108.139 314.281 108.555 314.498 109H312.055C311.99 108.836 311.911 108.593 311.817 108.271C311.776 108.124 311.747 108.027 311.729 107.98C311.308 108.391 310.856 108.698 310.376 108.903C309.896 109.108 309.383 109.211 308.838 109.211C307.877 109.211 307.118 108.95 306.562 108.429C306.011 107.907 305.735 107.248 305.735 106.451C305.735 105.924 305.861 105.455 306.113 105.045C306.365 104.629 306.717 104.312 307.168 104.096C307.625 103.873 308.281 103.68 309.137 103.516C310.291 103.299 311.091 103.097 311.536 102.909V102.663C311.536 102.188 311.419 101.852 311.185 101.652C310.95 101.447 310.508 101.345 309.857 101.345C309.418 101.345 309.075 101.433 308.829 101.608C308.583 101.778 308.384 102.08 308.231 102.514ZM311.536 104.518C311.22 104.623 310.719 104.749 310.033 104.896C309.348 105.042 308.899 105.186 308.688 105.326C308.366 105.555 308.205 105.845 308.205 106.196C308.205 106.542 308.334 106.841 308.592 107.093C308.85 107.345 309.178 107.471 309.576 107.471C310.021 107.471 310.446 107.324 310.851 107.031C311.149 106.809 311.346 106.536 311.439 106.214C311.504 106.003 311.536 105.602 311.536 105.01V104.518ZM324.544 102.426L322.109 102.865C322.027 102.379 321.84 102.013 321.547 101.767C321.26 101.521 320.885 101.397 320.422 101.397C319.807 101.397 319.314 101.611 318.945 102.039C318.582 102.461 318.4 103.17 318.4 104.166C318.4 105.273 318.585 106.056 318.954 106.513C319.329 106.97 319.83 107.198 320.457 107.198C320.926 107.198 321.31 107.066 321.608 106.803C321.907 106.533 322.118 106.073 322.241 105.423L324.667 105.836C324.415 106.949 323.932 107.79 323.217 108.358C322.502 108.927 321.544 109.211 320.343 109.211C318.978 109.211 317.888 108.78 317.073 107.919C316.265 107.058 315.86 105.865 315.86 104.342C315.86 102.801 316.268 101.603 317.082 100.747C317.896 99.8857 318.998 99.4551 320.387 99.4551C321.523 99.4551 322.426 99.7012 323.094 100.193C323.768 100.68 324.251 101.424 324.544 102.426ZM328.886 96.1152V100.853C329.683 99.9209 330.635 99.4551 331.742 99.4551C332.311 99.4551 332.823 99.5605 333.28 99.7715C333.737 99.9824 334.08 100.252 334.309 100.58C334.543 100.908 334.701 101.271 334.783 101.67C334.871 102.068 334.915 102.687 334.915 103.524V109H332.445V104.069C332.445 103.091 332.398 102.47 332.305 102.206C332.211 101.942 332.044 101.734 331.804 101.582C331.569 101.424 331.273 101.345 330.916 101.345C330.506 101.345 330.14 101.444 329.817 101.644C329.495 101.843 329.258 102.145 329.105 102.549C328.959 102.947 328.886 103.539 328.886 104.324V109H326.416V96.1152H328.886ZM342.834 106.029L345.295 106.442C344.979 107.345 344.478 108.033 343.792 108.508C343.112 108.977 342.26 109.211 341.234 109.211C339.611 109.211 338.41 108.681 337.631 107.62C337.016 106.771 336.708 105.698 336.708 104.403C336.708 102.856 337.112 101.646 337.921 100.773C338.729 99.8945 339.752 99.4551 340.988 99.4551C342.377 99.4551 343.473 99.915 344.275 100.835C345.078 101.749 345.462 103.152 345.427 105.045H339.239C339.257 105.777 339.456 106.349 339.837 106.759C340.218 107.163 340.692 107.365 341.261 107.365C341.647 107.365 341.973 107.26 342.236 107.049C342.5 106.838 342.699 106.498 342.834 106.029ZM342.975 103.533C342.957 102.818 342.772 102.276 342.421 101.907C342.069 101.532 341.642 101.345 341.138 101.345C340.599 101.345 340.153 101.541 339.802 101.934C339.45 102.326 339.277 102.859 339.283 103.533H342.975ZM356.009 109H353.715V107.629C353.334 108.162 352.883 108.561 352.361 108.824C351.846 109.082 351.324 109.211 350.797 109.211C349.725 109.211 348.805 108.78 348.037 107.919C347.275 107.052 346.895 105.845 346.895 104.298C346.895 102.716 347.267 101.515 348.011 100.694C348.755 99.8682 349.695 99.4551 350.832 99.4551C351.875 99.4551 352.777 99.8887 353.539 100.756V96.1152H356.009V109ZM349.417 104.131C349.417 105.127 349.555 105.848 349.83 106.293C350.229 106.938 350.785 107.26 351.5 107.26C352.068 107.26 352.552 107.02 352.95 106.539C353.349 106.053 353.548 105.329 353.548 104.368C353.548 103.296 353.354 102.525 352.968 102.057C352.581 101.582 352.086 101.345 351.482 101.345C350.896 101.345 350.404 101.579 350.006 102.048C349.613 102.511 349.417 103.205 349.417 104.131Z" fill="black"/>
<g filter="url(#filter2_d_0_1)">
<path fill-rule="evenodd" clip-rule="evenodd" d="M365.768 306C353.193 306 343 316.193 343 328.768C343 341.342 353.193 351.535 365.768 351.535H494.156L528 368V351.225C538.781 349.43 547 340.058 547 328.768C547 316.193 536.807 306 524.232 306H365.768Z" fill="#EEEEEE"/>
</g>
<path d="M381.65 328.808L384.182 328.562C384.334 329.411 384.642 330.035 385.104 330.434C385.573 330.832 386.203 331.031 386.994 331.031C387.832 331.031 388.462 330.855 388.884 330.504C389.312 330.146 389.525 329.73 389.525 329.256C389.525 328.951 389.435 328.693 389.253 328.482C389.077 328.266 388.767 328.078 388.321 327.92C388.017 327.814 387.322 327.627 386.238 327.357C384.844 327.012 383.865 326.587 383.303 326.083C382.512 325.374 382.116 324.51 382.116 323.49C382.116 322.834 382.301 322.222 382.67 321.653C383.045 321.079 383.581 320.643 384.278 320.344C384.981 320.045 385.828 319.896 386.818 319.896C388.436 319.896 389.651 320.25 390.466 320.959C391.286 321.668 391.717 322.614 391.758 323.798L389.156 323.912C389.045 323.25 388.805 322.775 388.436 322.488C388.072 322.195 387.524 322.049 386.792 322.049C386.036 322.049 385.444 322.204 385.017 322.515C384.741 322.714 384.604 322.98 384.604 323.314C384.604 323.619 384.732 323.88 384.99 324.097C385.318 324.372 386.115 324.659 387.381 324.958C388.646 325.257 389.581 325.567 390.185 325.89C390.794 326.206 391.269 326.643 391.608 327.199C391.954 327.75 392.127 328.433 392.127 329.247C392.127 329.985 391.922 330.677 391.512 331.321C391.102 331.966 390.521 332.446 389.771 332.763C389.021 333.073 388.087 333.229 386.968 333.229C385.339 333.229 384.088 332.854 383.215 332.104C382.342 331.348 381.82 330.249 381.65 328.808ZM393.727 328.201C393.727 327.381 393.929 326.587 394.333 325.819C394.737 325.052 395.309 324.466 396.047 324.062C396.791 323.657 397.62 323.455 398.534 323.455C399.946 323.455 401.104 323.915 402.006 324.835C402.908 325.749 403.359 326.906 403.359 328.307C403.359 329.719 402.902 330.891 401.988 331.822C401.08 332.748 399.935 333.211 398.552 333.211C397.696 333.211 396.879 333.018 396.1 332.631C395.326 332.244 394.737 331.679 394.333 330.935C393.929 330.185 393.727 329.273 393.727 328.201ZM396.258 328.333C396.258 329.259 396.478 329.968 396.917 330.46C397.356 330.952 397.898 331.198 398.543 331.198C399.188 331.198 399.727 330.952 400.16 330.46C400.6 329.968 400.819 329.253 400.819 328.315C400.819 327.401 400.6 326.698 400.16 326.206C399.727 325.714 399.188 325.468 398.543 325.468C397.898 325.468 397.356 325.714 396.917 326.206C396.478 326.698 396.258 327.407 396.258 328.333ZM413.862 333H411.568V331.629C411.188 332.162 410.736 332.561 410.215 332.824C409.699 333.082 409.178 333.211 408.65 333.211C407.578 333.211 406.658 332.78 405.891 331.919C405.129 331.052 404.748 329.845 404.748 328.298C404.748 326.716 405.12 325.515 405.864 324.694C406.608 323.868 407.549 323.455 408.686 323.455C409.729 323.455 410.631 323.889 411.393 324.756V320.115H413.862V333ZM407.271 328.131C407.271 329.127 407.408 329.848 407.684 330.293C408.082 330.938 408.639 331.26 409.354 331.26C409.922 331.26 410.405 331.02 410.804 330.539C411.202 330.053 411.401 329.329 411.401 328.368C411.401 327.296 411.208 326.525 410.821 326.057C410.435 325.582 409.939 325.345 409.336 325.345C408.75 325.345 408.258 325.579 407.859 326.048C407.467 326.511 407.271 327.205 407.271 328.131ZM416.306 322.4V320.115H418.775V322.4H416.306ZM416.306 333V323.666H418.775V333H416.306ZM427.459 333V331.603C427.119 332.101 426.671 332.493 426.114 332.78C425.563 333.067 424.98 333.211 424.365 333.211C423.738 333.211 423.176 333.073 422.678 332.798C422.18 332.522 421.819 332.136 421.597 331.638C421.374 331.14 421.263 330.451 421.263 329.572V323.666H423.732V327.955C423.732 329.268 423.776 330.073 423.864 330.372C423.958 330.665 424.125 330.899 424.365 331.075C424.605 331.245 424.91 331.33 425.279 331.33C425.701 331.33 426.079 331.216 426.413 330.987C426.747 330.753 426.976 330.466 427.099 330.126C427.222 329.78 427.283 328.939 427.283 327.604V323.666H429.753V333H427.459ZM432.135 323.666H434.411V324.94C435.226 323.95 436.195 323.455 437.32 323.455C437.918 323.455 438.437 323.578 438.876 323.824C439.315 324.07 439.676 324.442 439.957 324.94C440.367 324.442 440.81 324.07 441.284 323.824C441.759 323.578 442.266 323.455 442.805 323.455C443.49 323.455 444.07 323.596 444.545 323.877C445.02 324.152 445.374 324.56 445.608 325.099C445.778 325.497 445.863 326.142 445.863 327.032V333H443.394V327.665C443.394 326.739 443.309 326.142 443.139 325.872C442.91 325.521 442.559 325.345 442.084 325.345C441.738 325.345 441.413 325.45 441.108 325.661C440.804 325.872 440.584 326.183 440.449 326.593C440.314 326.997 440.247 327.639 440.247 328.518V333H437.777V327.885C437.777 326.977 437.733 326.391 437.646 326.127C437.558 325.863 437.42 325.667 437.232 325.538C437.051 325.409 436.802 325.345 436.485 325.345C436.104 325.345 435.762 325.447 435.457 325.652C435.152 325.857 434.933 326.153 434.798 326.54C434.669 326.927 434.604 327.568 434.604 328.465V333H432.135V323.666ZM458.748 330.029L461.209 330.442C460.893 331.345 460.392 332.033 459.706 332.508C459.026 332.977 458.174 333.211 457.148 333.211C455.525 333.211 454.324 332.681 453.545 331.62C452.93 330.771 452.622 329.698 452.622 328.403C452.622 326.856 453.026 325.646 453.835 324.773C454.644 323.895 455.666 323.455 456.902 323.455C458.291 323.455 459.387 323.915 460.189 324.835C460.992 325.749 461.376 327.152 461.341 329.045H455.153C455.171 329.777 455.37 330.349 455.751 330.759C456.132 331.163 456.606 331.365 457.175 331.365C457.562 331.365 457.887 331.26 458.15 331.049C458.414 330.838 458.613 330.498 458.748 330.029ZM458.889 327.533C458.871 326.818 458.687 326.276 458.335 325.907C457.983 325.532 457.556 325.345 457.052 325.345C456.513 325.345 456.067 325.541 455.716 325.934C455.364 326.326 455.191 326.859 455.197 327.533H458.889ZM462.176 333L465.542 328.192L462.316 323.666H465.331L466.983 326.232L468.724 323.666H471.624L468.46 328.087L471.914 333H468.882L466.983 330.108L465.067 333H462.176ZM481.521 326.426L479.086 326.865C479.004 326.379 478.816 326.013 478.523 325.767C478.236 325.521 477.861 325.397 477.398 325.397C476.783 325.397 476.291 325.611 475.922 326.039C475.559 326.461 475.377 327.17 475.377 328.166C475.377 329.273 475.562 330.056 475.931 330.513C476.306 330.97 476.807 331.198 477.434 331.198C477.902 331.198 478.286 331.066 478.585 330.803C478.884 330.533 479.095 330.073 479.218 329.423L481.644 329.836C481.392 330.949 480.908 331.79 480.193 332.358C479.479 332.927 478.521 333.211 477.319 333.211C475.954 333.211 474.864 332.78 474.05 331.919C473.241 331.058 472.837 329.865 472.837 328.342C472.837 326.801 473.244 325.603 474.059 324.747C474.873 323.886 475.975 323.455 477.363 323.455C478.5 323.455 479.402 323.701 480.07 324.193C480.744 324.68 481.228 325.424 481.521 326.426ZM488.807 330.029L491.268 330.442C490.951 331.345 490.45 332.033 489.765 332.508C489.085 332.977 488.232 333.211 487.207 333.211C485.584 333.211 484.383 332.681 483.604 331.62C482.988 330.771 482.681 329.698 482.681 328.403C482.681 326.856 483.085 325.646 483.894 324.773C484.702 323.895 485.725 323.455 486.961 323.455C488.35 323.455 489.445 323.915 490.248 324.835C491.051 325.749 491.435 327.152 491.399 329.045H485.212C485.229 329.777 485.429 330.349 485.81 330.759C486.19 331.163 486.665 331.365 487.233 331.365C487.62 331.365 487.945 331.26 488.209 331.049C488.473 330.838 488.672 330.498 488.807 330.029ZM488.947 327.533C488.93 326.818 488.745 326.276 488.394 325.907C488.042 325.532 487.614 325.345 487.11 325.345C486.571 325.345 486.126 325.541 485.774 325.934C485.423 326.326 485.25 326.859 485.256 327.533H488.947ZM498.826 330.029L501.287 330.442C500.971 331.345 500.47 332.033 499.784 332.508C499.104 332.977 498.252 333.211 497.227 333.211C495.604 333.211 494.402 332.681 493.623 331.62C493.008 330.771 492.7 329.698 492.7 328.403C492.7 326.856 493.104 325.646 493.913 324.773C494.722 323.895 495.744 323.455 496.98 323.455C498.369 323.455 499.465 323.915 500.268 324.835C501.07 325.749 501.454 327.152 501.419 329.045H495.231C495.249 329.777 495.448 330.349 495.829 330.759C496.21 331.163 496.685 331.365 497.253 331.365C497.64 331.365 497.965 331.26 498.229 331.049C498.492 330.838 498.691 330.498 498.826 330.029ZM498.967 327.533C498.949 326.818 498.765 326.276 498.413 325.907C498.062 325.532 497.634 325.345 497.13 325.345C496.591 325.345 496.146 325.541 495.794 325.934C495.442 326.326 495.27 326.859 495.275 327.533H498.967ZM512.001 333H509.707V331.629C509.326 332.162 508.875 332.561 508.354 332.824C507.838 333.082 507.316 333.211 506.789 333.211C505.717 333.211 504.797 332.78 504.029 331.919C503.268 331.052 502.887 329.845 502.887 328.298C502.887 326.716 503.259 325.515 504.003 324.694C504.747 323.868 505.688 323.455 506.824 323.455C507.867 323.455 508.77 323.889 509.531 324.756V320.115H512.001V333ZM505.409 328.131C505.409 329.127 505.547 329.848 505.822 330.293C506.221 330.938 506.777 331.26 507.492 331.26C508.061 331.26 508.544 331.02 508.942 330.539C509.341 330.053 509.54 329.329 509.54 328.368C509.54 327.296 509.347 326.525 508.96 326.057C508.573 325.582 508.078 325.345 507.475 325.345C506.889 325.345 506.396 325.579 505.998 326.048C505.605 326.511 505.409 327.205 505.409 328.131ZM519.85 330.029L522.311 330.442C521.994 331.345 521.493 332.033 520.808 332.508C520.128 332.977 519.275 333.211 518.25 333.211C516.627 333.211 515.426 332.681 514.646 331.62C514.031 330.771 513.724 329.698 513.724 328.403C513.724 326.856 514.128 325.646 514.937 324.773C515.745 323.895 516.768 323.455 518.004 323.455C519.393 323.455 520.488 323.915 521.291 324.835C522.094 325.749 522.478 327.152 522.442 329.045H516.255C516.272 329.777 516.472 330.349 516.853 330.759C517.233 331.163 517.708 331.365 518.276 331.365C518.663 331.365 518.988 331.26 519.252 331.049C519.516 330.838 519.715 330.498 519.85 330.029ZM519.99 327.533C519.973 326.818 519.788 326.276 519.437 325.907C519.085 325.532 518.657 325.345 518.153 325.345C517.614 325.345 517.169 325.541 516.817 325.934C516.466 326.326 516.293 326.859 516.299 327.533H519.99ZM533.024 333H530.73V331.629C530.35 332.162 529.898 332.561 529.377 332.824C528.861 333.082 528.34 333.211 527.812 333.211C526.74 333.211 525.82 332.78 525.053 331.919C524.291 331.052 523.91 329.845 523.91 328.298C523.91 326.716 524.282 325.515 525.026 324.694C525.771 323.868 526.711 323.455 527.848 323.455C528.891 323.455 529.793 323.889 530.555 324.756V320.115H533.024V333ZM526.433 328.131C526.433 329.127 526.57 329.848 526.846 330.293C527.244 330.938 527.801 331.26 528.516 331.26C529.084 331.26 529.567 331.02 529.966 330.539C530.364 330.053 530.563 329.329 530.563 328.368C530.563 327.296 530.37 326.525 529.983 326.057C529.597 325.582 529.102 325.345 528.498 325.345C527.912 325.345 527.42 325.579 527.021 326.048C526.629 326.511 526.433 327.205 526.433 328.131Z" fill="black"/>
<path d="M356.357 318.357C356.469 318.244 356.603 318.154 356.751 318.093C356.898 318.032 357.057 318 357.216 318C357.376 318 357.534 318.032 357.681 318.093C357.829 318.154 357.963 318.244 358.076 318.357L364.5 324.784L370.925 318.357C371.038 318.244 371.172 318.154 371.319 318.093C371.467 318.032 371.625 318.001 371.784 318.001C371.944 318.001 372.102 318.032 372.25 318.093C372.397 318.154 372.531 318.244 372.644 318.357C372.757 318.47 372.846 318.604 372.907 318.751C372.969 318.898 373 319.057 373 319.216C373 319.376 372.969 319.534 372.907 319.681C372.846 319.829 372.757 319.963 372.644 320.076L366.217 326.5L372.644 332.925C372.757 333.038 372.846 333.172 372.907 333.319C372.969 333.467 373 333.625 373 333.784C373 333.944 372.969 334.102 372.907 334.25C372.846 334.397 372.757 334.531 372.644 334.644C372.531 334.757 372.397 334.846 372.25 334.907C372.102 334.969 371.944 335 371.784 335C371.625 335 371.467 334.969 371.319 334.907C371.172 334.846 371.038 334.757 370.925 334.644L364.5 328.217L358.076 334.644C357.963 334.757 357.829 334.846 357.681 334.907C357.534 334.969 357.376 335 357.216 335C357.057 335 356.898 334.969 356.751 334.907C356.604 334.846 356.47 334.757 356.357 334.644C356.244 334.531 356.154 334.397 356.093 334.25C356.032 334.102 356.001 333.944 356.001 333.784C356.001 333.625 356.032 333.467 356.093 333.319C356.154 333.172 356.244 333.038 356.357 332.925L362.784 326.5L356.357 320.076C356.244 319.963 356.154 319.829 356.093 319.681C356.032 319.534 356 319.376 356 319.216C356 319.057 356.032 318.898 356.093 318.751C356.154 318.603 356.244 318.469 356.357 318.357Z" fill="#16168F"/>
<defs>
<filter id="filter0_d_0_1" x="186.943" y="122.943" width="310.951" height="553.86" filterUnits="userSpaceOnUse" color-interpolation-filters="sRGB">
<feFlood flood-opacity="0" result="BackgroundImageFix"/>
<feColorMatrix in="SourceAlpha" type="matrix" values="0 0 0 0 0 0 0 0 0 0 0 0 0 0 0 0 0 0 127 0" result="hardAlpha"/>
<feOffset dx="5" dy="5"/>
<feComposite in2="hardAlpha" operator="out"/>
<feColorMatrix type="matrix" values="0 0 0 0 0 0 0 0 0 0 0 0 0 0 0 0 0 0 1 0"/>
<feBlend mode="normal" in2="BackgroundImageFix" result="effect1_dropShadow_0_1"/>
<feBlend mode="normal" in="SourceGraphic" in2="effect1_dropShadow_0_1" result="shape"/>
</filter>
<filter id="filter1_d_0_1" x="169" y="80" width="212" height="70.1824" filterUnits="userSpaceOnUse" color-interpolation-filters="sRGB">
<feFlood flood-opacity="0" result="BackgroundImageFix"/>
<feColorMatrix in="SourceAlpha" type="matrix" values="0 0 0 0 0 0 0 0 0 0 0 0 0 0 0 0 0 0 127 0" result="hardAlpha"/>
<feOffset dy="4"/>
<feGaussianBlur stdDeviation="2"/>
<feComposite in2="hardAlpha" operator="out"/>
<feColorMatrix type="matrix" values="0 0 0 0 0 0 0 0 0 0 0 0 0 0 0 0 0 0 0.25 0"/>
<feBlend mode="normal" in2="BackgroundImageFix" result="effect1_dropShadow_0_1"/>
<feBlend mode="normal" in="SourceGraphic" in2="effect1_dropShadow_0_1" result="shape"/>
</filter>
<filter id="filter2_d_0_1" x="339" y="306" width="212" height="70" filterUnits="userSpaceOnUse" color-interpolation-filters="sRGB">
<feFlood flood-opacity="0" result="BackgroundImageFix"/>
<feColorMatrix in="SourceAlpha" type="matrix" values="0 0 0 0 0 0 0 0 0 0 0 0 0 0 0 0 0 0 127 0" result="hardAlpha"/>
<feOffset dy="4"/>
<feGaussianBlur stdDeviation="2"/>
<feComposite in2="hardAlpha" operator="out"/>
<feColorMatrix type="matrix" values="0 0 0 0 0 0 0 0 0 0 0 0 0 0 0 0 0 0 0.25 0"/>
<feBlend mode="normal" in2="BackgroundImageFix" result="effect1_dropShadow_0_1"/>
<feBlend mode="normal" in="SourceGraphic" in2="effect1_dropShadow_0_1" result="shape"/>
</filter>
</defs>
</svg>
