<svg width="329" height="710" viewBox="0 0 329 710" fill="none" xmlns="http://www.w3.org/2000/svg">
<path d="M24.3047 506L27.0376 507.237L27.0419 507.228L27.0461 507.218L24.3047 506ZM110.305 387L112.476 389.071L112.484 389.062L112.492 389.053L110.305 387ZM194.305 276L191.645 274.612L191.633 274.635L191.621 274.658L194.305 276ZM203.305 118L200.937 119.842L200.994 119.915L201.055 119.985L203.305 118ZM104.305 244V247H107.305V244H104.305ZM0.304688 244H-2.69531V247H0.304688V244ZM42.3047 46L44.4979 48.0469L44.5091 48.0349L44.5201 48.0228L42.3047 46ZM286.305 46L284.089 48.0228L284.1 48.0349L284.112 48.0469L286.305 46ZM297.305 301L294.63 299.641L294.621 299.658L294.613 299.676L297.305 301ZM192.305 441L190.129 438.934L190.121 438.943L192.305 441ZM126.305 526L128.954 527.407L128.963 527.391L128.972 527.374L126.305 526ZM109.305 610H106.305V613H109.305V610ZM318.305 610H321.305V607H318.305V610ZM318.305 710V713H321.305V710H318.305ZM0.304688 710H-2.69531V713H0.304688V710ZM3.30469 634C3.30469 584.308 11.2567 542.087 27.0376 507.237L21.5718 504.762C5.35266 540.58 -2.69531 583.692 -2.69531 634H3.30469ZM27.0461 507.218C42.8533 471.652 71.2693 432.271 112.476 389.071L108.134 384.929C66.6734 428.396 37.756 468.348 21.5633 504.782L27.0461 507.218ZM112.492 389.053C153.235 345.639 181.463 308.391 196.988 277.342L191.621 274.658C176.479 304.943 148.708 341.695 108.117 384.947L112.492 389.053ZM196.964 277.388C213.179 246.309 221.305 213.835 221.305 180H215.305C215.305 212.832 207.43 244.357 191.645 274.612L196.964 277.388ZM221.305 180C221.305 149.885 216.331 128.228 205.554 116.015L201.055 119.985C210.279 130.438 215.305 150.115 215.305 180H221.305ZM205.673 116.158C195.641 103.261 180.663 97 161.305 97V103C179.279 103 192.301 108.739 200.937 119.842L205.673 116.158ZM161.305 97C141.675 97 126.462 102.968 116.242 115.339C106.113 127.601 101.305 145.662 101.305 169H107.305C107.305 146.338 111.997 129.899 120.868 119.161C129.648 108.532 142.934 103 161.305 103V97ZM101.305 169V244H107.305V169H101.305ZM104.305 241H0.304688V247H104.305V241ZM3.30469 244V176H-2.69531V244H3.30469ZM3.30469 176C3.30469 119.801 17.1862 77.3094 44.4979 48.0469L40.1115 43.953C11.4232 74.6905 -2.69531 118.866 -2.69531 176H3.30469ZM44.5201 48.0228C71.8002 18.1446 111.56 2.99997 164.305 2.99997V-3.00003C110.383 -3.00003 68.8092 12.522 40.0892 43.9772L44.5201 48.0228ZM164.305 2.99997C217.05 2.99997 256.809 18.1446 284.089 48.0228L288.52 43.9772C259.8 12.522 218.226 -3.00003 164.305 -3.00003V2.99997ZM284.112 48.0469C311.423 77.3094 325.305 119.801 325.305 176H331.305C331.305 118.866 317.186 74.6905 288.498 43.953L284.112 48.0469ZM325.305 176C325.305 218.162 315.098 259.365 294.63 299.641L299.979 302.359C320.845 261.301 331.305 219.171 331.305 176H325.305ZM294.613 299.676C274.802 339.958 240.03 386.372 190.129 438.934L194.48 443.065C244.579 390.294 279.807 343.376 299.997 302.324L294.613 299.676ZM190.121 438.943C157.405 473.662 135.169 502.242 123.638 524.626L128.972 527.374C140.107 505.758 161.871 477.672 194.488 443.057L190.121 438.943ZM123.655 524.593C112.087 546.369 106.305 569.853 106.305 595H112.305C112.305 570.813 117.856 548.298 128.954 527.407L123.655 524.593ZM106.305 595V610H112.305V595H106.305ZM109.305 613H318.305V607H109.305V613ZM315.305 610V710H321.305V610H315.305ZM318.305 707H0.304688V713H318.305V707ZM3.30469 710V634H-2.69531V710H3.30469Z" fill="#308A7B" fill-opacity="0.2"/>
</svg>
