<svg width="503" height="67" viewBox="0 0 503 67" fill="none" xmlns="http://www.w3.org/2000/svg">
<g clip-path="url(#clip0_7_127)">
<path d="M12.1439 16.4503C16.0603 16.6692 20.1724 16.7335 24.0981 16.7873C25.7766 16.8812 27.2778 16.7995 28.9562 16.8933C36.0615 16.9594 43.1668 17.0254 50.2721 17.0915C58.8694 17.2409 67.2894 17.2149 75.8867 17.3644C88.0459 17.3818 100.196 17.5643 112.355 17.5817C115.162 17.573 117.959 17.7294 120.766 17.7207C127.871 17.7868 134.976 17.8528 142.072 18.0839C149.178 18.15 156.283 18.216 163.379 18.4471C166.186 18.4384 168.992 18.4298 171.79 18.5861C182.998 18.8815 194.393 19.1873 205.601 19.4827C212.511 19.7034 219.42 19.924 226.526 19.9901C229.323 20.1465 231.943 20.1274 234.741 20.2837C245.567 20.7233 256.579 21.1733 267.405 21.6129C278.231 22.0525 288.871 22.4816 299.697 22.9212C302.494 23.0776 305.292 23.2339 308.276 23.4007C315.362 23.7968 322.263 24.1825 329.35 24.5787C340.353 25.1937 351.17 25.7983 362.182 26.2483C365.726 26.4464 369.269 26.6444 372.812 26.8425C380.272 27.2595 387.732 27.6765 395.192 28.0934C395.751 28.1247 396.497 28.1664 397.057 28.1977C380.263 27.4245 363.283 26.6409 346.48 26.0328C339.383 25.8017 332.483 25.416 325.387 25.1849C322.403 25.0182 319.233 24.8409 316.24 24.8392C305.973 24.4309 295.884 24.198 285.617 23.7897C273.849 23.4631 262.091 22.9714 250.323 22.6447C248.272 22.5301 246.398 22.5908 244.346 22.4762C237.987 22.4518 231.823 22.2729 225.464 22.2485C212.755 22.0348 200.045 21.821 187.336 21.6073C185.471 21.503 183.597 21.5638 181.722 21.6246C175.55 21.6107 169.181 21.7514 163.008 21.7374C151.781 21.7721 140.741 21.8172 129.515 21.8519C126.521 21.8502 123.333 22.003 120.339 22.0013C113.225 22.1003 106.11 22.1993 98.9866 22.4633C89.9979 22.6231 80.8226 22.7724 71.8339 22.9322C59.2833 23.224 46.5462 23.5054 33.9956 23.7972C31.0024 23.7954 28.0001 23.9587 24.8204 23.9465C19.3843 24.1393 13.9483 24.3321 8.5122 24.5249C7.95271 24.4937 7.37477 24.7925 7.33787 25.4526C7.31019 25.9477 7.84201 26.4741 8.4015 26.5054C10.453 26.6201 12.3087 26.8893 14.3602 27.004C13.941 27.8084 13.7269 28.293 13.6992 28.7882C13.5977 30.6036 15.1839 32.3478 17.4219 32.4729C32.9472 32.5129 48.2953 32.3775 63.8113 32.5825C77.2667 32.838 90.7314 32.9284 104.187 33.1838C118.957 33.3472 133.913 33.521 148.674 33.8494C153.346 33.945 158.018 34.0406 162.698 33.9711C164.004 34.0441 165.319 33.952 166.811 34.0354C190.71 34.8746 214.618 35.5488 238.517 36.388C251.218 36.7668 264.104 37.156 276.795 37.6998C281.467 37.7954 285.943 38.0455 290.615 38.1411C315.064 39.1766 339.513 40.2121 363.963 41.2477C374.416 41.6664 384.869 42.0851 395.322 42.5038C404.283 42.8392 413.235 43.3395 422.205 43.5098C429.674 43.7618 436.966 43.8383 444.435 44.0902C448.174 44.1336 451.904 44.3421 455.457 44.3752C463.877 44.3491 472.297 44.3231 480.717 44.2971C480.12 44.926 480.065 45.9162 480.215 46.5868C480.355 47.4224 480.878 48.1138 481.792 48.496C482.519 48.8678 483.62 49.2604 484.384 48.972C486.286 48.4161 488.188 47.8602 489.903 47.2939C489.903 47.2939 489.903 47.2939 489.717 47.2835C489.903 47.2939 489.912 47.1289 490.099 47.1393C490.285 47.1497 490.481 46.9951 490.481 46.9951L490.295 46.9847C491.246 46.7067 492.196 46.4288 493.343 45.9962C494.294 45.7182 495.441 45.2857 496.392 45.0077C497.538 44.5751 498.499 44.1322 499.645 43.6996C500.792 43.267 501.612 41.9884 501.676 40.8332C501.713 40.173 501.554 39.6675 501.218 38.9865C500.882 38.3055 499.996 37.4282 499.072 37.211C498.149 36.9938 497.226 36.7767 496.293 36.7246C496.107 36.7141 495.92 36.7037 495.734 36.6933C495.174 36.662 494.428 36.6203 493.86 36.7541C492.359 36.8357 491.044 36.9278 489.552 36.8444C488.433 36.7818 487.305 36.8843 485.999 36.8114C482.82 36.7992 479.826 36.7974 476.638 36.9503C475.892 36.9086 474.95 37.0215 474.204 36.9798C474.595 36.6706 474.8 36.3509 474.819 36.0209C475.024 35.7012 475.042 35.3711 475.061 35.0411C475.07 34.876 475.088 34.5459 475.284 34.3913C475.302 34.0613 475.321 33.7312 475.144 33.5557C475.144 33.5557 475.33 33.5661 475.339 33.4011C475.917 33.1023 476.495 32.8035 476.905 32.1642C477.306 31.6899 477.529 31.0402 477.566 30.3801C477.603 29.7199 477.444 29.2144 477.108 28.5334C476.931 28.3579 476.763 28.0174 476.585 27.8419C476.054 27.3156 475.503 27.1192 474.953 26.9229C473.853 26.5303 472.556 26.2923 471.251 26.2193C470.132 26.1568 469.199 26.1047 468.08 26.0421C466.588 25.9587 465.096 25.8753 463.604 25.7919C461.553 25.6773 459.315 25.5522 457.264 25.4375C451.669 25.1248 446.074 24.812 440.479 24.4993C435.257 24.2074 429.849 23.9051 424.627 23.6132C419.778 23.3422 415.115 23.0816 410.267 22.8106C391.057 21.7368 372.026 20.8386 352.807 19.9299C338.438 19.2923 324.068 18.6546 309.708 17.852C303.367 17.4975 296.831 17.2977 290.481 17.1083C276.102 16.6357 261.732 15.9981 247.354 15.5255C243.251 15.2962 239.139 15.2319 235.036 15.0025C232.611 14.867 230.364 14.907 227.94 14.7714C213.738 14.4743 199.537 14.1772 185.336 13.88C181.037 13.8053 176.738 13.7306 172.253 13.6454C169.829 13.5099 167.395 13.5394 164.961 13.5689C150.751 13.4368 136.727 13.3152 122.516 13.1831C115.224 13.1066 107.932 13.0301 100.631 13.1187C88.0992 13.0804 75.5671 13.0421 63.2122 13.1793C52.3585 13.2348 41.514 13.1253 30.6696 13.0158C28.9819 13.0871 27.3034 12.9932 25.4292 13.054C22.6226 13.0627 19.8251 12.9063 17.0185 12.915C14.5571 13.4396 11.9462 13.2937 9.52171 13.1582C9.37211 12.4876 8.6538 11.9508 8.08509 12.0846C6.40662 11.9907 4.90543 12.0724 3.21774 12.1436C2.46253 12.2669 1.69809 12.5553 1.47469 13.205C1.24207 14.0198 1.75544 14.8763 2.4922 15.083C3.22896 15.2897 3.96572 15.4965 4.70248 15.7032C5.43924 15.9099 5.99873 15.9412 6.74471 15.9829C8.60045 16.2522 10.2789 16.346 12.1439 16.4503ZM448.84 35.5621C451.078 35.6872 453.503 35.8227 455.741 35.9478C455.9 36.4533 456.254 36.8043 456.609 37.1552C455.676 37.1031 454.734 37.216 453.988 37.1743C452.31 37.0805 450.622 37.1517 448.944 37.0579C441.475 36.8059 434.183 36.7295 426.714 36.4775C423.348 36.4549 419.982 36.4323 416.625 36.2447C411.403 35.9528 405.985 35.8155 400.763 35.5236C388.632 35.0111 376.687 34.509 364.555 33.9964C341.038 33.013 317.708 32.0401 294.191 31.0567C277.397 30.2835 260.585 29.8404 243.772 29.3973C218.558 28.6502 193.167 27.7276 167.953 26.9805C162.909 26.864 157.864 26.7476 152.81 26.7962C138.413 26.6537 124.025 26.3461 109.628 26.2036C95.604 26.0819 81.4026 25.7848 67.3784 25.6631C66.073 25.5902 64.7583 25.6822 63.4528 25.6093C67.2012 25.4877 71.1268 25.5415 74.8752 25.42C88.1626 25.3349 101.459 25.0848 114.747 24.9997C119.427 24.9303 124.108 24.8608 128.603 24.7809C131.036 24.7514 133.47 24.7219 135.708 24.847C149.732 24.9686 163.579 24.9149 177.416 25.0261C180.037 25.007 182.843 24.9983 185.463 24.9792C189.389 25.0331 193.315 25.087 197.045 25.2955C211.246 25.5926 225.447 25.8898 239.649 26.1869C242.829 26.1991 245.999 26.3763 248.992 26.378C249.738 26.4197 250.671 26.4719 251.417 26.5136C253.655 26.6387 255.893 26.7637 257.953 26.7134C272.145 27.1756 286.515 27.8132 300.707 28.2754C307.244 28.4752 313.78 28.675 320.308 29.0399C341.391 30.0528 362.661 31.0761 383.744 32.089C405.75 33.3191 427.393 34.3633 448.84 35.5621Z" fill="#308A7B"/>
<path d="M38.7925 41.1076C39.3563 41.1391 39.8366 40.7495 39.8652 40.2375C39.8938 39.7255 39.46 39.2848 38.8962 39.2533C38.3324 39.2218 37.8521 39.6113 37.8235 40.1234C37.7949 40.6354 38.2287 41.076 38.7925 41.1076Z" fill="#308A7B"/>
</g>
<defs>
<clipPath id="clip0_7_127">
<rect width="501" height="39" fill="white" transform="translate(2.17654) rotate(3.19927)"/>
</clipPath>
</defs>
</svg>
